<!-- Generated by IcoMoon.io -->
<svg version="1.1" xmlns="http://www.w3.org/2000/svg" width="32" height="32" viewBox="0 0 32 32">
<title>amazon</title>
<path d="M16.011-0.090c-8.852 0-16.011 7.249-16.011 16.102s7.136 16.102 16.011 16.102 16.011-7.249 16.011-16.102c0-8.852-7.159-16.102-16.011-16.102zM17.073 10.253c-0.271-0.429-0.813-0.587-1.287-0.587-0.881 0-1.649 0.452-1.829 1.378-0.045 0.203-0.181 0.406-0.406 0.429l-2.213-0.248c-0.181-0.045-0.406-0.203-0.339-0.474 0.497-2.687 2.936-3.5 5.104-3.5 1.107 0 2.552 0.294 3.433 1.129 1.107 1.039 0.994 2.416 0.994 3.929v3.546c0 1.061 0.452 1.536 0.858 2.123 0.136 0.203 0.181 0.452 0 0.61-0.474 0.384-1.287 1.107-1.761 1.513v0 0c-0.158 0.136-0.361 0.136-0.542 0.045-0.768-0.632-0.903-0.926-1.31-1.513-1.242 1.287-2.145 1.671-3.749 1.671-1.92 0-3.41-1.174-3.41-3.546 0-1.852 0.994-3.116 2.439-3.726 1.242-0.542 2.958-0.632 4.291-0.79v-0.294c0-0.587 0.045-1.242-0.271-1.694zM23.689 22.447v0c-2.078 1.536-5.081 2.349-7.678 2.349-3.636 0-6.91-1.332-9.372-3.568-0.203-0.181-0.023-0.407 0.203-0.271 2.665 1.558 5.962 2.484 9.372 2.484 2.303 0 4.833-0.474 7.159-1.468 0.361-0.181 0.655 0.203 0.316 0.474zM24.254 23.938c-0.181 0.136-0.339 0.068-0.248-0.113 0.248-0.632 0.813-2.032 0.542-2.371v0c-0.271-0.339-1.761-0.158-2.416-0.090-0.203 0.023-0.226-0.158-0.045-0.271 1.197-0.836 3.139-0.587 3.365-0.316s-0.068 2.236-1.197 3.162z"></path>
<path d="M13.956 16.327c0 0.994 0.519 1.649 1.378 1.649 0.632 0 1.219-0.384 1.581-1.039 0.452-0.79 0.429-1.536 0.429-2.416v0-0.497c-1.626 0-3.387 0.339-3.387 2.303z"></path>
</svg>
