<!-- Generated by IcoMoon.io -->
<svg version="1.1" xmlns="http://www.w3.org/2000/svg" width="32" height="32" viewBox="0 0 32 32">
<title>apple</title>
<path d="M16 0c-8.824 0-16 7.176-16 16s7.176 16 16 16c8.824 0 16-7.176 16-16s-7.176-16-16-16zM16.903 6.567c0.745-0.88 2.008-1.512 3.047-1.557 0.090 0 0.158 0.068 0.181 0.158 0.113 1.106-0.271 2.324-1.061 3.295-0.745 0.903-1.851 1.467-2.866 1.467-0.068 0-0.135 0-0.203 0s-0.135-0.068-0.158-0.135c-0.203-1.264 0.429-2.482 1.061-3.227zM24.237 19.791v0c-0.135 0.474-0.564 1.647-1.399 2.866-0.79 1.173-1.693 2.482-3.159 2.505-0.677 0.023-1.151-0.181-1.602-0.384s-0.925-0.406-1.67-0.406c-0.79 0-1.286 0.203-1.76 0.406-0.429 0.181-0.88 0.361-1.489 0.406-0.023 0-0.045 0-0.068 0-1.309 0-2.257-1.219-3.204-2.573-1.896-2.731-2.979-7.221-1.264-10.178 0.903-1.557 2.527-2.55 4.243-2.573 0.023 0 0.045 0 0.045 0 0.745 0 1.444 0.271 2.054 0.519 0.451 0.181 0.858 0.338 1.173 0.338 0.271 0 0.677-0.158 1.128-0.338 0.654-0.271 1.489-0.587 2.347-0.587 0.113 0 0.226 0 0.338 0.023 0.745 0.023 2.55 0.293 3.746 2.031 0.023 0.045 0.045 0.090 0.023 0.135 0 0.045-0.045 0.090-0.068 0.113h-0.023c-0.338 0.203-2.076 1.399-2.054 3.633 0.023 2.753 2.302 3.746 2.55 3.859 0 0 0 0 0.023 0 0.068 0.023 0.113 0.113 0.090 0.203z"></path>
</svg>
