<!-- Generated by IcoMoon.io -->
<svg version="1.1" xmlns="http://www.w3.org/2000/svg" width="32" height="32" viewBox="0 0 32 32">
<title>discord</title>
<path d="M16 0c-8.846 0-16 7.154-16 16s7.154 16 16 16 16-7.154 16-16-7.154-16-16-16zM24.35 25.456l-4.355-4.040 0.429 1.76h-10.787c-1.061 0-1.941-0.858-1.941-1.941v-12.773c0-1.061 0.858-1.941 1.941-1.941h12.75c1.061 0 1.941 0.88 1.963 1.941 0 0.451 0 16.519 0 16.993z"></path>
<path d="M17.58 10.922v0.271c0 0 0.993-0.068 2.234 1.173-0.948-0.677-2.279-1.106-3.769-1.106s-2.821 0.429-3.769 1.106c1.241-1.219 2.234-1.173 2.234-1.173v-0.271c-1.828 0.113-2.64 0.97-2.64 0.97-1.399 1.805-1.467 5.732-1.467 5.732 1.309 1.58 2.956 1.377 2.956 1.377l0.609-0.88c-0.79-0.203-1.331-0.7-1.67-1.083 0.925 0.654 2.257 1.083 3.724 1.083s2.798-0.406 3.724-1.083c-0.338 0.384-0.903 0.858-1.67 1.083l0.609 0.88c0 0 1.647 0.203 2.956-1.377 0.045 0-0.023-3.927-1.422-5.732 0 0-0.812-0.858-2.64-0.97zM14.307 16.496c-0.519 0-0.948-0.451-0.948-1.015s0.429-1.015 0.948-1.015 0.948 0.451 0.948 1.015-0.406 1.015-0.948 1.015zM17.805 16.496c-0.519 0-0.948-0.451-0.948-1.015s0.429-1.015 0.948-1.015 0.948 0.451 0.948 1.015-0.406 1.015-0.948 1.015z"></path>
</svg>
