<!-- Generated by IcoMoon.io -->
<svg version="1.1" xmlns="http://www.w3.org/2000/svg" width="32" height="32" viewBox="0 0 32 32">
<title>dribbble</title>
<path d="M16.496 16h0.158c-0.158-0.338-0.338-0.835-0.677-1.173-3.994 1.173-7.831 1.173-8.485 1.173v0.158c0 2.008 0.677 3.994 2.008 5.506 0.677-1.015 3.001-4.333 6.996-5.664zM11.013 22.657c1.489 1.173 3.159 1.67 4.987 1.67 1.173 0 2.166-0.158 3.159-0.677-0.158-0.835-0.677-3.34-1.828-6.161-4.491 1.512-6.161 4.671-6.319 5.168zM21.506 9.659c-1.489-1.331-3.498-2.008-5.506-2.008-0.677 0-1.173 0-1.828 0.158 0.496 0.677 1.828 2.505 3.001 4.671 2.821-0.993 3.994-2.482 4.333-2.821zM15.323 13.157c-1.331-2.324-2.663-4.175-3.001-4.671-2.324 1.173-3.994 3.159-4.491 5.664v0c0.835 0.023 3.994-0.158 7.492-0.993zM19.159 16.993c0.993 2.821 1.489 4.987 1.489 5.822 1.828-1.331 3.001-3.159 3.498-5.506-0.338-0.158-1.67-0.496-3.34-0.496-0.474 0.023-0.97 0.181-1.647 0.181zM16 0c-8.824 0-16 7.154-16 16s7.154 16 16 16c8.846 0 16-7.154 16-16s-7.176-16-16-16zM16 25.997c-5.506 0-9.997-4.491-9.997-9.997s4.491-9.997 9.997-9.997c5.506 0 9.997 4.491 9.997 9.997 0 5.484-4.491 9.997-9.997 9.997zM18.008 13.992c0.158 0.338 0.338 0.835 0.496 1.173 0 0.158 0.158 0.158 0.158 0.338 0.677 0 1.173-0.158 1.828-0.158 1.828 0 3.34 0.338 3.836 0.338 0-1.828-0.677-3.498-1.828-4.987-0.338 0.474-1.67 2.144-4.491 3.295z"></path>
</svg>
