<!-- Generated by IcoMoon.io -->
<svg version="1.1" xmlns="http://www.w3.org/2000/svg" width="32" height="32" viewBox="0 0 32 32">
<title>dropbox</title>
<path d="M11.080 14.082l4.92 2.731 4.897-2.731-4.897-3.272z"></path>
<path d="M16 0c-8.824 0-16 7.154-16 16s7.154 16 16 16c8.846 0 16-7.154 16-16s-7.176-16-16-16zM22.003 21.732l-6.003 2.731-6.003-2.731v-1.602l2.324 1.286 3.678-3.159 3.678 3.159 2.324-1.286v1.602zM24.733 17.354l-4.92 2.731-3.814-3.272-3.814 3.272-4.92-2.731 3.814-3.272-3.814-3.272 4.92-3.272 3.814 3.272 3.814-3.272 4.92 3.272-3.814 3.272 3.814 3.272z"></path>
</svg>
