<!-- Generated by IcoMoon.io -->
<svg version="1.1" xmlns="http://www.w3.org/2000/svg" width="32" height="32" viewBox="0 0 32 32">
<title>google-plus</title>
<path d="M16 0c-8.846 0-16 7.154-16 16s7.154 16 16 16c8.846 0 16-7.154 16-16s-7.154-16-16-16zM17.151 21.032c-1.625 2.099-4.649 2.731-7.109 1.896-2.618-0.835-4.513-3.475-4.468-6.206-0.135-3.408 2.843-6.544 6.251-6.59 1.738-0.158 3.43 0.519 4.739 1.625-0.542 0.587-1.083 1.173-1.67 1.715-1.151-0.7-2.55-1.241-3.904-0.767-2.189 0.609-3.498 3.182-2.685 5.326 0.677 2.234 3.385 3.453 5.506 2.505 1.106-0.384 1.828-1.399 2.144-2.505-1.264-0.023-2.527 0-3.769-0.045 0-0.745 0-1.489 0-2.234 2.099 0 4.197 0 6.296 0 0.135 1.828-0.135 3.791-1.331 5.281zM26.336 17.647c-0.632 0-1.264 0-1.873 0 0 0.632 0 1.264-0.023 1.896-0.632 0-1.264 0-1.873 0 0-0.632 0-1.264-0.023-1.873-0.632 0-1.264 0-1.873-0.023 0-0.632 0-1.241 0-1.873 0.632 0 1.264 0 1.873-0.023 0-0.609 0-1.241 0.023-1.873 0.632 0 1.241 0 1.873 0 0 0.632 0 1.264 0.023 1.873 0.632 0 1.264 0 1.873 0.023 0 0.632 0 1.241 0 1.873z"></path>
</svg>
