<!-- Generated by IcoMoon.io -->
<svg version="1.1" xmlns="http://www.w3.org/2000/svg" width="32" height="32" viewBox="0 0 32 32">
<title>pinterest</title>
<path d="M16 0c-8.824 0-16 7.154-16 16s7.154 16 16 16c8.824 0 16-7.154 16-16s-7.176-16-16-16zM17.286 20.491c-1.196-0.090-1.715-0.7-2.663-1.286-0.542 2.753-1.151 5.371-3.047 6.77-0.587-4.152 0.858-7.267 1.535-10.584-1.151-1.918 0.135-5.8 2.55-4.829 2.956 1.173-2.573 7.154 1.151 7.921 3.882 0.767 5.461-6.725 3.047-9.162-3.475-3.52-10.11-0.090-9.298 4.965 0.181 1.219 1.467 1.602 0.519 3.317-2.212-0.474-2.889-2.234-2.798-4.604 0.135-3.814 3.453-6.522 6.77-6.86 4.197-0.451 8.124 1.535 8.666 5.484 0.564 4.401-1.941 9.207-6.432 8.869v0z"></path>
</svg>
