<!-- Generated by IcoMoon.io -->
<svg version="1.1" xmlns="http://www.w3.org/2000/svg" width="32" height="32" viewBox="0 0 32 32">
<title>skype</title>
<path d="M19.611 15.752c-0.384-0.248-0.858-0.474-1.399-0.654s-1.151-0.338-1.805-0.496c-0.519-0.113-0.903-0.226-1.128-0.293s-0.451-0.158-0.654-0.271c-0.203-0.113-0.361-0.226-0.496-0.384-0.113-0.135-0.158-0.293-0.158-0.496 0-0.316 0.158-0.587 0.519-0.812 0.361-0.248 0.835-0.361 1.422-0.361 0.632 0 1.083 0.113 1.377 0.316 0.293 0.226 0.519 0.542 0.722 0.925 0.181 0.316 0.338 0.519 0.496 0.677s0.406 0.226 0.7 0.226c0.338 0 0.609-0.113 0.835-0.361s0.338-0.519 0.338-0.812c0-0.316-0.090-0.632-0.248-0.97-0.158-0.316-0.429-0.632-0.79-0.925s-0.812-0.519-1.354-0.7c-0.542-0.181-1.173-0.271-1.918-0.271-0.925 0-1.715 0.135-2.415 0.384-0.677 0.271-1.219 0.654-1.58 1.128-0.361 0.496-0.564 1.061-0.564 1.715 0 0.677 0.181 1.241 0.519 1.693s0.812 0.812 1.399 1.061c0.587 0.248 1.286 0.474 2.144 0.654 0.632 0.135 1.128 0.271 1.512 0.384 0.361 0.113 0.654 0.271 0.88 0.496 0.203 0.203 0.316 0.474 0.316 0.812 0 0.429-0.203 0.767-0.609 1.061-0.429 0.293-0.97 0.429-1.647 0.429-0.496 0-0.88-0.068-1.196-0.226-0.293-0.135-0.519-0.316-0.677-0.542s-0.316-0.519-0.474-0.858c-0.135-0.316-0.293-0.564-0.474-0.722-0.203-0.181-0.429-0.248-0.722-0.248-0.338 0-0.632 0.113-0.858 0.316-0.226 0.226-0.338 0.496-0.338 0.79 0 0.496 0.181 1.015 0.519 1.512 0.338 0.519 0.79 0.925 1.354 1.241 0.767 0.429 1.76 0.632 2.934 0.632 0.97 0 1.828-0.158 2.55-0.451 0.722-0.316 1.286-0.745 1.67-1.309s0.564-1.196 0.564-1.873c0-0.587-0.113-1.083-0.338-1.489-0.226-0.338-0.542-0.654-0.925-0.925zM16 0c-8.824 0-16 7.154-16 16s7.154 16 16 16 16-7.154 16-16-7.176-16-16-16zM19.836 24.959c-0.812 0-1.58-0.203-2.257-0.587-0.474 0.090-0.993 0.135-1.489 0.135-4.513 0-8.192-3.769-8.192-8.418 0-0.587 0.068-1.151 0.158-1.693-0.406-0.722-0.654-1.557-0.654-2.46 0-2.708 2.121-4.897 4.739-4.897 0.925 0 1.783 0.271 2.527 0.745 0.451-0.090 0.925-0.113 1.399-0.113 4.513 0 8.192 3.769 8.192 8.418 0 0.609-0.068 1.219-0.181 1.805 0.316 0.654 0.496 1.399 0.496 2.166 0 2.708-2.121 4.897-4.739 4.897z"></path>
</svg>
