<!-- Generated by IcoMoon.io -->
<svg version="1.1" xmlns="http://www.w3.org/2000/svg" width="32" height="32" viewBox="0 0 32 32">
<title>twitch</title>
<path d="M16.011 0c-8.83 0-16.011 7.159-16.011 16.011s7.159 15.989 16.011 15.989c8.83 0 16.011-7.159 16.011-16.011s-7.181-15.989-16.011-15.989zM24.141 18.789l-4.336 4.607h-3.252l-2.168 2.168h-2.168v-2.168h-4.336v-11.901l1.084-3.252h15.176v10.546z"></path>
<path d="M13.866 22.922l2.326-1.694h3.839l3.026-3.252v-8.649h-12.985v11.901h3.794v1.694zM18.721 12.556h1.084v4.336h-1.084v-4.336zM15.469 12.556h1.084v4.336h-1.084v-4.336z"></path>
</svg>
