<!-- Generated by IcoMoon.io -->
<svg version="1.1" xmlns="http://www.w3.org/2000/svg" width="32" height="32" viewBox="0 0 32 32">
<title>whatsapp</title>
<path d="M16 8.756c-1.896 0-3.724 0.745-5.078 2.099s-2.099 3.159-2.099 5.078c0 1.151 0.271 2.234 0.79 3.25l0.316 0.609-0.587 2.889 2.843-0.677 0.654 0.316c0.993 0.496 2.076 0.745 3.182 0.745 1.918 0 3.724-0.745 5.078-2.099s2.099-3.182 2.099-5.078c0-1.918-0.745-3.724-2.099-5.078-1.377-1.309-3.182-2.054-5.1-2.054zM20.807 18.889c-0.361 0.542-0.903 1.219-1.58 1.377-1.219 0.293-3.069 0-5.393-2.166-2.008-1.873-2.55-3.453-2.415-4.694 0.068-0.7 0.654-1.354 1.151-1.76 0.338-0.293 0.858-0.158 1.038 0.248l0.745 1.693c0.090 0.226 0.068 0.474-0.090 0.677l-0.384 0.496c-0.158 0.203-0.181 0.496-0.045 0.722 0.451 0.79 2.212 2.347 3.047 2.685 0.248 0.090 0.519 0.045 0.7-0.158l0.429-0.451c0.158-0.181 0.429-0.248 0.654-0.181l1.783 0.496c0.429 0.158 0.609 0.654 0.361 1.015z"></path>
<path d="M16 0c-8.824 0-16 7.154-16 16s7.154 16 16 16c8.846 0 16-7.154 16-16s-7.176-16-16-16zM25.162 16.203c-0.158 4.987-4.31 8.937-9.298 8.869-1.422-0.023-2.753-0.361-3.927-0.948l-4.626 1.083c-0.248 0.068-0.474-0.158-0.429-0.429l0.97-4.716c-0.632-1.241-0.993-2.64-0.993-4.13-0.023-4.874 3.836-8.937 8.711-9.162 5.348-0.248 9.749 4.107 9.591 9.433z"></path>
</svg>
