<!-- Generated by IcoMoon.io -->
<svg version="1.1" xmlns="http://www.w3.org/2000/svg" width="32" height="32" viewBox="0 0 32 32">
<title>behance</title>
<path d="M12.818 16.812h-3.498v3.227h3.34c0.474 0 1.444-0.181 1.444-1.557-0.023-1.67-1.286-1.67-1.286-1.67z"></path>
<path d="M13.653 13.54c0-1.264-0.858-1.264-0.858-1.264h-3.498v2.685h3.272c0.587 0 1.083-0.158 1.083-1.422z"></path>
<path d="M21.777 14.962c-1.851 0-2.099 1.85-2.099 1.85h3.972c-0.045 0 0-1.851-1.873-1.851z"></path>
<path d="M16 0c-8.846 0-16 7.154-16 16s7.154 16 16 16 16-7.154 16-16c0-8.846-7.154-16-16-16zM19.137 10.855h4.965v1.489h-4.965v-1.489zM16.632 18.618c0 3.678-3.814 3.566-3.814 3.566h-6.274v-12.051h6.274c1.918 0 3.385 1.061 3.385 3.182 0 2.166-1.828 2.279-1.828 2.279 2.415 0.068 2.257 3.024 2.257 3.024zM25.929 18.437h-6.251c0 2.234 2.099 2.076 2.099 2.076 1.986 0 1.941-1.286 1.941-1.286h2.099c0 3.453-4.13 3.182-4.13 3.182-4.942 0-4.626-4.626-4.626-4.626 0-0.023 0-4.626 4.626-4.626 4.92 0.045 4.243 5.281 4.243 5.281z"></path>
</svg>
