<!-- Generated by IcoMoon.io -->
<svg version="1.1" xmlns="http://www.w3.org/2000/svg" width="32" height="32" viewBox="0 0 32 32">
<title>flickr</title>
<path d="M16 0c-8.846 0-16 7.154-16 16s7.154 16 16 16 16-7.154 16-16c0-8.846-7.154-16-16-16zM11.487 19.52c-1.941 0-3.543-1.602-3.543-3.543s1.557-3.543 3.543-3.543 3.543 1.602 3.543 3.543c0 1.963-1.557 3.543-3.543 3.543zM20.513 19.52c-1.963 0-3.543-1.602-3.543-3.543s1.557-3.543 3.543-3.543c1.941 0 3.543 1.602 3.543 3.543-0.045 1.963-1.625 3.543-3.543 3.543z"></path>
</svg>
