<!-- Generated by IcoMoon.io -->
<svg version="1.1" xmlns="http://www.w3.org/2000/svg" width="32" height="32" viewBox="0 0 32 32">
<title>mastodon</title>
<path d="M19.001 9.185c-1.106 0-1.918 0.429-2.482 1.264l-0.542 0.903-0.542-0.903c-0.542-0.835-1.377-1.264-2.482-1.264-0.948 0-1.715 0.338-2.302 0.993-0.564 0.654-0.858 1.535-0.858 2.64v5.416h2.144v-5.258c0-1.106 0.474-1.67 1.399-1.67 1.038 0 1.557 0.677 1.557 1.986v2.866h2.121v-2.866c0-1.309 0.519-1.986 1.557-1.986 0.925 0 1.399 0.564 1.399 1.67v5.258h2.144v-5.416c0-1.106-0.271-1.986-0.858-2.64-0.542-0.654-1.286-0.993-2.257-0.993z"></path>
<path d="M16 0c-8.846 0-16 7.154-16 16s7.154 16 16 16 16-7.154 16-16c0-8.846-7.154-16-16-16zM25.207 18.054c-0.293 1.444-2.527 3.047-5.123 3.362-1.354 0.158-2.663 0.316-4.085 0.248-2.302-0.113-4.13-0.542-4.13-0.542 0 0.226 0.023 0.429 0.045 0.632 0.293 2.279 2.257 2.415 4.13 2.482s3.543-0.451 3.543-0.451l0.068 1.693c0 0-1.309 0.7-3.656 0.835-1.286 0.068-2.889-0.023-4.762-0.519-4.040-1.061-4.739-5.371-4.852-9.749-0.023-1.309-0.023-2.527-0.023-3.543 0-4.468 2.934-5.777 2.934-5.777 1.467-0.677 4.017-0.97 6.635-0.993h0.068c2.64 0.023 5.168 0.316 6.657 0.993 0 0 2.934 1.309 2.934 5.777 0.023-0.045 0.045 3.25-0.384 5.551z"></path>
</svg>
