<!-- Generated by IcoMoon.io -->
<svg version="1.1" xmlns="http://www.w3.org/2000/svg" width="32" height="32" viewBox="0 0 32 32">
<title>pocket</title>
<path d="M16.011 0c-8.83 0-16.011 7.159-16.011 16.011s7.159 15.989 16.011 15.989c8.83 0 16.011-7.159 16.011-16.011s-7.181-15.989-16.011-15.989zM24.593 16.802c0 4.449-3.613 8.040-8.040 8.040h-1.084c-4.449 0-8.040-3.613-8.040-8.040v-5.894c0-0.587 0.474-1.084 1.084-1.084h15.018c0.587 0 1.084 0.474 1.084 1.084l-0.023 5.894z"></path>
<path d="M19.534 14.453l-3.523 3.523-3.523-3.523c-0.429-0.429-1.107-0.429-1.513 0-0.429 0.429-0.429 1.107 0 1.513l4.291 4.291c0.203 0.203 0.474 0.316 0.768 0.316s0.542-0.113 0.768-0.316l4.291-4.291c0.429-0.429 0.429-1.107 0-1.513-0.452-0.429-1.129-0.429-1.558 0z"></path>
</svg>
