<!-- Generated by IcoMoon.io -->
<svg version="1.1" xmlns="http://www.w3.org/2000/svg" width="32" height="32" viewBox="0 0 32 32">
<title>reddit</title>
<path d="M8.214 14.353c-0.316-0.248-0.722-0.384-1.128-0.384-1.016 0-1.828 0.812-1.828 1.828 0 0.587 0.271 1.128 0.745 1.467 0.384-1.106 1.151-2.099 2.212-2.911z"></path>
<path d="M23.808 9.862c0.745 0 1.354-0.609 1.354-1.354s-0.609-1.354-1.354-1.354-1.354 0.609-1.354 1.354 0.609 1.354 1.354 1.354z"></path>
<path d="M16 0c-8.824 0-16 7.154-16 16 0 8.824 7.154 16 16 16 8.824 0 16-7.154 16-16s-7.176-16-16-16zM26.087 18.008c0.045 0.248 0.068 0.496 0.068 0.767 0 3.746-4.581 6.793-10.223 6.793s-10.223-3.047-10.223-6.793c0-0.271 0.023-0.542 0.090-0.812-0.767-0.451-1.264-1.286-1.264-2.189 0-1.399 1.128-2.527 2.527-2.527 0.632 0 1.241 0.248 1.715 0.677 1.805-1.173 4.243-1.918 6.951-1.941l1.58-4.987c0.045-0.181 0.248-0.271 0.429-0.248l4.13 0.97c0.293-0.767 1.038-1.309 1.918-1.309 1.151 0 2.076 0.925 2.076 2.076s-0.925 2.076-2.076 2.076-2.076-0.925-2.076-2.076c0-0.023 0-0.045 0-0.045l-3.836-0.903-1.422 4.468c2.595 0.090 4.92 0.812 6.657 1.963 0.474-0.451 1.083-0.722 1.738-0.722 1.399 0 2.527 1.128 2.527 2.527 0.068 0.948-0.451 1.805-1.286 2.234v0z"></path>
<path d="M11.013 17.512c0-0.835 0.677-1.512 1.512-1.512s1.512 0.677 1.512 1.512c0 0.835-0.677 1.512-1.512 1.512s-1.512-0.677-1.512-1.512zM19.656 21.98c-0.767 0.767-1.941 1.128-3.633 1.128 0 0 0 0-0.023 0 0 0 0 0-0.023 0-1.693 0-2.889-0.361-3.633-1.128-0.135-0.135-0.135-0.361 0-0.496s0.361-0.135 0.496 0c0.609 0.609 1.647 0.925 3.137 0.925 0 0 0 0 0.023 0s0 0 0.023 0c1.489 0 2.527-0.293 3.137-0.925 0.135-0.135 0.361-0.135 0.496 0s0.135 0.361 0 0.496zM19.475 19.024c-0.835 0-1.512-0.677-1.512-1.512s0.677-1.512 1.512-1.512 1.512 0.677 1.512 1.512-0.677 1.512-1.512 1.512z"></path>
<path d="M24.891 13.969c-0.429 0-0.835 0.158-1.173 0.429 1.061 0.812 1.805 1.805 2.189 2.911 0.496-0.338 0.812-0.88 0.812-1.512 0-1.015-0.812-1.828-1.828-1.828z"></path>
</svg>
