<!-- Generated by IcoMoon.io -->
<svg version="1.1" xmlns="http://www.w3.org/2000/svg" width="32" height="32" viewBox="0 0 32 32">
<title>soundcloud</title>
<path d="M16 0c-8.824 0-16 7.154-16 16 0 8.824 7.154 16 16 16s16-7.154 16-16c-0.023-8.846-7.176-16-16-16zM5.642 19.408c0 0.045-0.090 0.090-0.203 0.090s-0.203-0.023-0.203-0.090l-0.316-1.535 0.316-1.58c0-0.045 0.090-0.090 0.203-0.090s0.203 0.045 0.203 0.090l0.361 1.58-0.361 1.535zM7.876 20.265c0 0.090-0.113 0.158-0.271 0.158-0.135 0-0.248-0.068-0.248-0.158l-0.271-2.347 0.271-3.633c0-0.090 0.113-0.158 0.248-0.158s0.248 0.068 0.271 0.158l0.293 3.633-0.293 2.347zM10.11 20.22c0 0.113-0.135 0.203-0.316 0.203-0.158 0-0.293-0.090-0.316-0.203l-0.226-2.324 0.226-4.852c0-0.113 0.135-0.203 0.316-0.203 0.158 0 0.293 0.090 0.316 0.203l0.248 4.852-0.248 2.324zM12.322 20.197c0 0.135-0.158 0.248-0.338 0.248s-0.338-0.113-0.338-0.248l-0.181-2.279 0.181-4.897c0-0.135 0.158-0.248 0.338-0.248s0.338 0.113 0.338 0.248l0.203 4.897-0.203 2.279zM14.556 20.152c0 0.158-0.181 0.271-0.384 0.271s-0.384-0.135-0.384-0.271l-0.158-2.257 0.158-5.597c0-0.158 0.181-0.271 0.384-0.271s0.384 0.113 0.384 0.271l0.158 5.597-0.158 2.257zM23.876 20.446c-0.045 0-7.763 0-7.786 0-0.158-0.023-0.293-0.158-0.293-0.316v-8.621c0-0.158 0.068-0.248 0.271-0.316 0.542-0.203 1.151-0.316 1.783-0.316 2.595 0 4.716 1.918 4.92 4.355 0.338-0.135 0.7-0.203 1.083-0.203 1.557 0 2.798 1.219 2.798 2.708 0.023 1.489-1.219 2.708-2.776 2.708z"></path>
</svg>
