<!-- Generated by IcoMoon.io -->
<svg version="1.1" xmlns="http://www.w3.org/2000/svg" width="32" height="32" viewBox="0 0 32 32">
<title>steam</title>
<path d="M15.966 0c-8.479 0-15.418 6.596-15.966 14.937 0.002 0.004 0.004 0.008 0.007 0.012 0-0.001 0-0.002 0-0.002l8.597 3.539c0.234-0.154 0.483-0.287 0.749-0.395 0.603-0.249 1.24-0.36 1.874-0.331l3.915-5.688c-0.001-0.025-0.001-0.052-0.001-0.079 0-3.357 2.726-6.087 6.077-6.087 3.352 0 6.077 2.731 6.077 6.087s-2.725 6.089-6.077 6.089c-0.045 0-0.092-0.001-0.137-0.003l-5.602 4.003c0.016 0.618-0.098 1.237-0.342 1.828-0.939 2.259-3.543 3.335-5.801 2.391-1.38-0.575-2.316-1.772-2.621-3.135l-6.058-2.499c1.997 6.56 8.095 11.333 15.308 11.333 8.836 0 16-7.164 16-16s-7.164-16-16-16z"></path>
<path d="M9.942 24.504l-1.978-0.82c0.35 0.732 0.958 1.346 1.762 1.681 1.744 0.727 3.75-0.102 4.477-1.847 0.352-0.843 0.353-1.777 0.005-2.623s-1.003-1.508-1.848-1.86c-0.838-0.349-1.735-0.338-2.524-0.038l2.045 0.847c1.285 0.536 1.893 2.013 1.357 3.3-0.535 1.285-2.010 1.895-3.296 1.36z"></path>
<path d="M25.269 11.993c0-2.235-1.817-4.055-4.050-4.055-2.232 0-4.049 1.82-4.049 4.055 0 2.237 1.817 4.057 4.049 4.057 2.233 0 4.050-1.82 4.050-4.057zM18.185 11.987c0-1.683 1.362-3.048 3.041-3.048 1.68 0 3.042 1.365 3.042 3.048s-1.363 3.047-3.042 3.047c-1.678 0-3.041-1.364-3.041-3.047z"></path>
</svg>
