<!-- Generated by IcoMoon.io -->
<svg version="1.1" xmlns="http://www.w3.org/2000/svg" width="32" height="32" viewBox="0 0 32 32">
<title>swarm</title>
<path d="M16.011 0c-8.852 0-16.011 7.159-16.011 16.011s7.159 16.011 16.011 16.011c8.852 0 16.011-7.159 16.011-16.011s-7.159-16.011-16.011-16.011zM19.918 6.143c1.265 0.474 1.92 4.155-2.845 6.278 0-0.023-0.068-0.136-0.090-0.181-1.739-4.268 1.31-6.752 2.936-6.097zM4.404 9.395c1.084-2.845 8.017-3.071 11.133 3.275 0.023 0.068 0.113 0.316 0.136 0.339-8.446 3.771-12.127-1.445-11.269-3.613zM11.54 24.841c-0.068-0.023-0.090-0.023-0.136-0.068-0.406-0.136-0.745-0.294-0.971-0.361-0.339-0.113-0.474-0.474-0.361-0.79 0.090-0.294 0.248-0.565 0.406-0.971 0.023-0.068 0.023-0.090 0.068-0.136 0.452-0.994 1.107-2.394 1.987-3.771 0.023 1.332 0.339 2.687 0.881 3.907s1.31 2.303 2.258 3.229c-1.603-0.248-3.094-0.655-4.133-1.039zM23.419 24.886c-0.068 0.023-0.113 0.090-0.181 0.113 0 0.023-0.023 0.023-0.023 0.023-0.881 0.542-1.965 0.948-3.004 0.948-0.948 0-2.055-0.316-2.71-0.836-1.016-0.836-1.874-1.874-2.462-3.184-0.565-1.332-0.836-2.733-0.678-4.11 0.113-1.287 0.971-2.484 1.987-3.184 0.203-0.113 0.407-0.248 0.61-0.361 0.407-0.203 0.858-0.429 1.31-0.542 0.068-0.023 0.136-0.023 0.203-0.068 0.023 0 0.090-0.023 0.113-0.023-0.203 0.406-0.361 0.858-0.407 1.332-0.136 1.716 0.136 3.433 0.903 5.126 0.745 1.694 1.807 3.049 3.139 4.087 0.361 0.294 0.79 0.474 1.287 0.61-0.023 0-0.045 0.023-0.090 0.068zM25.88 21.996c-0.248 0.565-0.858 0.903-1.49 0.903-0.339 0-0.677-0.090-0.971-0.316-1.061-0.858-1.92-1.965-2.507-3.32-0.61-1.378-0.881-2.778-0.768-4.155 0.068-0.836 0.858-1.49 1.649-1.49 0.181 0 0.339 0.023 0.474 0.090 1.536 0.542 2.845 1.739 3.591 3.342 0.7 1.671 0.677 3.455 0.023 4.946z"></path>
</svg>
