<!-- Generated by IcoMoon.io -->
<svg version="1.1" xmlns="http://www.w3.org/2000/svg" width="32" height="32" viewBox="0 0 32 32">
<title>wordpress</title>
<path d="M4.017 16c0 4.626 2.753 8.621 6.77 10.516l-5.732-15.278c-0.677 1.467-1.038 3.069-1.038 4.762zM24.102 15.413c0-1.444-0.542-2.437-0.993-3.227-0.609-0.97-1.173-1.783-1.173-2.731 0-1.083 0.835-2.076 2.008-2.076 0.045 0 0.113 0 0.158 0-2.144-1.896-4.987-3.069-8.102-3.069-4.197 0-7.876 2.099-10.020 5.258 0.271 0 0.542 0.023 0.767 0.023 1.264 0 3.204-0.158 3.204-0.158 0.654-0.045 0.722 0.88 0.068 0.97 0 0-0.654 0.068-1.377 0.113l4.378 12.66 2.618-7.673-1.873-4.987c-0.654-0.045-1.264-0.113-1.264-0.113-0.654-0.045-0.564-0.993 0.068-0.97 0 0 1.986 0.158 3.159 0.158 1.264 0 3.204-0.158 3.204-0.158 0.654-0.045 0.722 0.88 0.068 0.97 0 0-0.654 0.068-1.377 0.113l4.333 12.547 1.196-3.904c0.542-1.602 0.948-2.753 0.948-3.746v0zM16.203 17.015l-3.588 10.178c1.083 0.316 2.212 0.474 3.385 0.474 1.399 0 2.731-0.226 3.994-0.654-0.023-0.045-0.068-0.113-0.090-0.158l-3.701-9.839zM26.516 10.381c0.045 0.361 0.090 0.767 0.090 1.196 0 1.173-0.226 2.527-0.903 4.175l-3.656 10.313c3.566-2.031 5.958-5.777 5.958-10.087-0.023-2.008-0.542-3.927-1.489-5.597zM16 0c-8.824 0-16 7.154-16 16s7.154 16 16 16 16-7.154 16-16-7.176-16-16-16zM16 29.992c-7.718 0-13.992-6.274-13.992-13.992s6.274-13.992 13.992-13.992 13.992 6.274 13.992 13.992c0 7.718-6.274 13.992-13.992 13.992z"></path>
</svg>
