<!-- Generated by IcoMoon.io -->
<svg version="1.1" xmlns="http://www.w3.org/2000/svg" width="32" height="32" viewBox="0 0 32 32">
<title>android</title>
<path d="M14.047 10.275v0 0c-0.316 0-0.587 0.248-0.587 0.587 0 0.316 0.248 0.587 0.587 0.587v0c0.316 0 0.587-0.248 0.587-0.587 0-0.316-0.248-0.587-0.587-0.587z"></path>
<path d="M16.011 0c-8.83 0-16.011 7.159-16.011 16.011s7.159 16.011 16.011 16.011c8.852 0 16.011-7.159 16.011-16.011s-7.181-16.011-16.011-16.011zM10.004 19.512c0 0.632-0.519 1.152-1.152 1.152s-1.152-0.519-1.152-1.152v-4.607c0-0.632 0.519-1.152 1.152-1.152s1.152 0.519 1.152 1.152v4.607zM20.98 20.099c0 0.948-0.768 1.739-1.739 1.739v2.303c0 0.632-0.519 1.152-1.152 1.152s-1.152-0.519-1.152-1.152v-2.303h-2.303v2.303c0 0.632-0.519 1.152-1.152 1.152s-1.152-0.519-1.152-1.152v-2.303c-0.948 0-1.739-0.768-1.739-1.739v-6.346h10.388v6.346zM20.98 13.166h-10.343v-0.587c0.181-1.581 1.061-2.958 2.349-3.771l-0.587-1.152c-0.136-0.294-0.023-0.632 0.248-0.768 0.294-0.136 0.632-0.023 0.768 0.248l0.587 1.152 0.158-0.068c0.519-0.181 1.061-0.271 1.649-0.271s1.129 0.090 1.649 0.271l0.158 0.068 0.587-1.152c0.136-0.294 0.497-0.407 0.768-0.248 0.294 0.136 0.407 0.497 0.248 0.768l-0.587 1.152c1.265 0.836 2.168 2.191 2.349 3.771h0.023v0.587h-0.023zM23.87 19.512c0 0.632-0.519 1.152-1.152 1.152s-1.152-0.519-1.152-1.152v-4.607c0-0.632 0.519-1.152 1.152-1.152s1.152 0.519 1.152 1.152v4.607z"></path>
<path d="M17.524 10.275v0 0c-0.316 0-0.587 0.248-0.587 0.587 0 0.316 0.248 0.587 0.587 0.587v0c0.316 0 0.587-0.248 0.587-0.587-0.023-0.316-0.271-0.587-0.587-0.587z"></path>
</svg>
