<!-- Generated by IcoMoon.io -->
<svg version="1.1" xmlns="http://www.w3.org/2000/svg" width="32" height="32" viewBox="0 0 32 32">
<title>blogger</title>
<path d="M18.821 17.986h-5.732c-0.496 0-0.903 0.406-0.903 0.903s0.406 0.903 0.903 0.903h5.732c0.609 0 1.015-0.406 0.903-0.903 0-0.496-0.406-0.903-0.903-0.903z"></path>
<path d="M13.179 13.992h2.821c0.496 0 0.903-0.406 0.903-0.903s-0.406-0.903-0.903-0.903h-2.821c-0.609 0-1.015 0.406-0.903 0.903 0 0.496 0.406 0.903 0.903 0.903z"></path>
<path d="M16 0c-8.846 0-16 7.199-16 16s7.131 16 16 16 16-7.199 16-16-7.154-16-16-16zM23.65 18.798c0 2.685-2.212 4.897-4.92 4.897h-5.326c-2.708 0-4.92-2.189-4.92-4.897v-5.416c0-2.685 2.212-4.897 4.92-4.897h2.505c2.708 0 4.92 1.986 4.92 4.694 0 0.496 0.496 0.903 1.015 0.903h0.812c0.496 0 1.015 0.609 1.015 1.196-0.023 0.023-0.023 3.52-0.023 3.52z"></path>
</svg>
