<!-- Generated by IcoMoon.io -->
<svg version="1.1" xmlns="http://www.w3.org/2000/svg" width="32" height="32" viewBox="0 0 32 32">
<title>github</title>
<path d="M16.011 0c-8.83 0-16.011 7.339-16.011 16.418 0 7.249 4.584 13.392 10.953 15.56 0.79 0.158 1.107-0.361 1.107-0.79 0-0.384-0.023-1.694-0.023-3.049-4.449 0.994-5.397-1.942-5.397-1.942-0.723-1.897-1.784-2.394-1.784-2.394-1.445-1.016 0.113-0.994 0.113-0.994 1.603 0.113 2.439 1.694 2.439 1.694 1.423 2.507 3.749 1.784 4.652 1.355 0.136-1.061 0.542-1.784 1.016-2.191-3.546-0.407-7.294-1.829-7.294-8.107 0-1.784 0.61-3.252 1.649-4.404-0.181-0.406-0.7-2.078 0.158-4.336 0 0 1.355-0.452 4.404 1.671 1.287-0.361 2.642-0.542 4.020-0.542s2.733 0.181 4.020 0.542c3.071-2.123 4.404-1.671 4.404-1.671 0.881 2.258 0.339 3.929 0.158 4.336 1.039 1.152 1.649 2.62 1.649 4.404 0 6.301-3.749 7.701-7.317 8.107 0.565 0.519 1.084 1.513 1.084 3.049 0 2.191-0.023 3.952-0.023 4.494 0 0.429 0.294 0.948 1.107 0.79 6.368-2.168 10.953-8.31 10.953-15.56-0.023-9.101-7.204-16.44-16.034-16.44z"></path>
</svg>
