<!-- Generated by IcoMoon.io -->
<svg version="1.1" xmlns="http://www.w3.org/2000/svg" width="32" height="32" viewBox="0 0 32 32">
<title>google</title>
<path d="M16 0c-8.846 0-16 7.154-16 16s7.154 16 16 16 16-7.154 16-16c0-8.846-7.154-16-16-16zM23.515 22.386c-2.392 3.092-6.838 4.017-10.471 2.798-3.859-1.219-6.657-5.123-6.59-9.14-0.203-5.010 4.197-9.636 9.207-9.704 2.55-0.226 5.055 0.767 6.973 2.392-0.79 0.858-1.602 1.738-2.46 2.527-1.693-1.038-3.746-1.828-5.755-1.128-3.227 0.903-5.145 4.694-3.949 7.853 0.993 3.295 4.987 5.078 8.102 3.678 1.625-0.564 2.685-2.054 3.159-3.678-1.851-0.023-3.724 0-5.551-0.068 0-1.106 0-2.189 0-3.295 3.092 0 6.183 0 9.275 0 0.226 2.663-0.181 5.574-1.941 7.763z"></path>
</svg>
