<!-- Generated by IcoMoon.io -->
<svg version="1.1" xmlns="http://www.w3.org/2000/svg" width="32" height="32" viewBox="0 0 32 32">
<title>instagram</title>
<path d="M20.987 16c0 2.753-2.234 4.987-4.987 4.987s-4.987-2.234-4.987-4.987c0-0.293 0.023-0.564 0.090-0.835h-1.738v6.657c0 0.474 0.384 0.835 0.835 0.835h11.645c0.451 0 0.835-0.384 0.835-0.835v-6.657h-1.738c0.023 0.271 0.045 0.542 0.045 0.835zM16 19.317c1.828 0 3.34-1.489 3.34-3.34s-1.489-3.34-3.34-3.34-3.34 1.489-3.34 3.34c0 1.85 1.512 3.34 3.34 3.34zM19.994 12.502h1.986c0.271 0 0.496-0.226 0.496-0.496v-1.986c0-0.271-0.226-0.496-0.496-0.496h-1.986c-0.271 0-0.496 0.226-0.496 0.496v1.986c0 0.271 0.226 0.496 0.496 0.496zM16 0c-8.824 0-16 7.154-16 16s7.154 16 16 16c8.824 0 16-7.154 16-16s-7.176-16-16-16zM24.327 22.477c0 1.015-0.835 1.851-1.851 1.851h-12.953c-1.015 0-1.851-0.835-1.851-1.851v-12.953c0-1.015 0.835-1.851 1.851-1.851h12.953c1.015 0 1.851 0.835 1.851 1.851v12.953z"></path>
</svg>
