<!-- Generated by IcoMoon.io -->
<svg version="1.1" xmlns="http://www.w3.org/2000/svg" width="32" height="32" viewBox="0 0 32 32">
<title>joomla</title>
<path d="M16 0c-8.846 0-16 7.154-16 16s7.154 16 16 16 16-7.154 16-16-7.154-16-16-16zM16.271 9.794c1.173-1.173 2.821-1.535 4.31-1.106 0.181-1.286 1.264-2.257 2.595-2.257 1.444 0 2.618 1.173 2.618 2.618 0 1.331-0.993 2.437-2.279 2.595 0.429 1.467 0.045 3.114-1.106 4.288l-0.158 0.158-1.941-1.941 0.158-0.158c0.632-0.632 0.632-1.647 0-2.279s-1.647-0.632-2.279 0l-4.355 4.355-1.941-1.941 4.378-4.333zM8.869 6.432c1.309 0 2.392 0.948 2.595 2.212 1.422-0.338 2.956 0.045 4.062 1.151l0.158 0.158-1.941 1.941-0.158-0.158c-0.632-0.632-1.647-0.632-2.279 0v0c-0.632 0.632-0.632 1.647 0 2.279l4.355 4.378-1.941 1.941-4.355-4.378c-1.173-1.173-1.535-2.843-1.083-4.333-1.173-0.271-2.054-1.309-2.054-2.573 0-1.444 1.173-2.618 2.64-2.618zM15.526 22.883c-1.128 1.128-2.685 1.489-4.13 1.151-0.271 1.173-1.309 2.031-2.55 2.031-1.444 0-2.618-1.173-2.618-2.618 0-1.241 0.858-2.279 2.008-2.55-0.361-1.444 0.023-3.024 1.128-4.152l0.158-0.158 1.941 1.941-0.158 0.158c-0.632 0.632-0.632 1.647 0 2.279s1.647 0.632 2.279 0l4.355-4.378 1.941 1.941-4.355 4.355zM23.199 26.065c-1.264 0-2.324-0.903-2.573-2.099-1.489 0.451-3.182 0.090-4.355-1.083l-0.158-0.158 1.941-1.941 0.158 0.158c0.632 0.632 1.647 0.632 2.279 0s0.632-1.647 0-2.279l-4.355-4.378 1.941-1.941 4.355 4.378c1.106 1.106 1.489 2.685 1.151 4.107v0c1.286 0.181 2.257 1.286 2.257 2.595 0 1.444-1.173 2.64-2.64 2.64z"></path>
</svg>
