<!-- Generated by IcoMoon.io -->
<svg version="1.1" xmlns="http://www.w3.org/2000/svg" width="32" height="32" viewBox="0 0 32 32">
<title>lastfm</title>
<path d="M16 0c-8.824 0-16 7.154-16 16s7.154 16 16 16c8.846 0 16-7.154 16-16s-7.176-16-16-16zM21.145 21.529c-3.904 0-5.258-1.76-5.98-3.994l-0.722-2.279c-0.519-1.67-0.97-2.843-2.956-2.843-1.377 0-3.182 0.903-3.182 3.701 0 2.189 1.512 3.543 3.069 3.543 1.331 0 2.121-0.745 2.527-1.106l0.677 1.986c-0.474 0.338-1.422 0.993-3.34 0.993-2.618 0-5.123-1.873-5.123-5.348 0-3.588 2.595-5.709 5.281-5.709 3.001 0 4.13 1.083 5.078 4.040l0.745 2.279c0.564 1.67 1.693 2.889 3.972 2.889 1.535 0 2.347-0.338 2.347-1.196 0-0.654-0.406-1.128-1.535-1.399l-1.535-0.361c-1.873-0.451-2.618-1.422-2.618-2.979 0-2.482 1.986-3.25 4.017-3.25 2.302 0 3.701 0.835 3.882 2.889l-2.257 0.271c-0.090-0.97-0.677-1.377-1.76-1.377-0.993 0-1.602 0.451-1.602 1.241 0 0.677 0.293 1.083 1.286 1.331l1.444 0.316c1.918 0.451 2.979 1.399 2.979 3.25 0 2.234-1.896 3.114-4.694 3.114z"></path>
</svg>
