<!-- Generated by IcoMoon.io -->
<svg version="1.1" xmlns="http://www.w3.org/2000/svg" width="32" height="32" viewBox="0 0 32 32">
<title>linkedin</title>
<path d="M16 0c-8.824 0-16 7.154-16 16s7.154 16 16 16c8.824 0 16-7.154 16-16s-7.176-16-16-16zM12.096 22.635h-3.227v-10.426h3.227v10.426zM10.449 10.922c-1.015 0-1.693-0.722-1.693-1.625 0-0.925 0.677-1.625 1.715-1.625s1.693 0.7 1.715 1.625c0 0.903-0.654 1.625-1.738 1.625zM23.921 22.635h-3.227v-5.777c0-1.354-0.474-2.257-1.647-2.257-0.903 0-1.422 0.609-1.67 1.219-0.090 0.203-0.113 0.519-0.113 0.812v6.003h-3.25v-7.086c0-1.309-0.045-2.392-0.090-3.317h2.821l0.158 1.444h0.068c0.429-0.677 1.467-1.693 3.227-1.693 2.121 0 3.724 1.422 3.724 4.491v6.161z"></path>
</svg>
