<!-- Generated by IcoMoon.io -->
<svg version="1.1" xmlns="http://www.w3.org/2000/svg" width="32" height="32" viewBox="0 0 32 32">
<title>medium</title>
<path d="M16.011 0c-8.83 0-16.011 7.181-16.011 16.011s7.181 16.011 16.011 16.011 16.011-7.181 16.011-16.011c0-8.83-7.181-16.011-16.011-16.011zM8.785 11.54c0-0.181-0.113-0.474-0.294-0.587l-1.807-2.078v-0.294h5.51l4.268 9.304 3.704-9.304h5.217v0.294l-1.536 1.423c-0.113 0.113-0.181 0.294-0.181 0.361v10.637c0 0.181 0 0.294 0.181 0.361l1.423 1.423v0.294h-7.407v-0.294l1.536-1.536c0.181-0.181 0.181-0.181 0.181-0.361v-8.559l-4.268 10.727h-0.587l-4.946-10.727v7.227c0 0.294 0.113 0.587 0.294 0.836l2.010 2.371v0.294h-5.623v-0.294l2.010-2.371c0.181-0.181 0.294-0.587 0.294-0.836l0.023-8.31z"></path>
</svg>
