<!-- Generated by IcoMoon.io -->
<svg version="1.1" xmlns="http://www.w3.org/2000/svg" width="32" height="32" viewBox="0 0 32 32">
<title>periscope</title>
<path d="M16.011 0c-8.83 0-16.011 7.181-16.011 16.011s7.181 16.011 16.011 16.011 16.011-7.181 16.011-16.011-7.181-16.011-16.011-16.011zM16.011 26.309c-1.513 0-8.107-7.181-8.107-12.511 0-4.471 3.636-8.107 8.107-8.107s8.107 3.636 8.107 8.107c0 5.533-6.594 12.511-8.107 12.511z"></path>
<path d="M15.966 8.333c-3.184 0-5.781 2.574-5.781 5.781s2.574 5.781 5.781 5.781 5.781-2.574 5.781-5.781-2.574-5.781-5.781-5.781zM15.966 18.766c-2.574 0-4.652-2.078-4.652-4.652 0-0.768 0.181-1.49 0.519-2.123 0.384 0.723 1.129 1.219 2.010 1.219 1.242 0 2.258-1.016 2.258-2.258 0-0.565-0.203-1.084-0.542-1.49 0.136-0.023 0.271-0.023 0.429-0.023 2.574 0 4.652 2.078 4.652 4.652s-2.1 4.675-4.675 4.675z"></path>
</svg>
