<!-- Generated by IcoMoon.io -->
<svg version="1.1" xmlns="http://www.w3.org/2000/svg" width="32" height="32" viewBox="0 0 32 32">
<title>slideshare</title>
<path d="M22.319 6.928h-12.547c-1.241 0-1.602 0.429-1.602 1.805v7.582c2.663 1.399 4.965 1.151 6.206 1.106 0.519-0.023 0.858 0.090 1.061 0.293 0.045 0.045 0.068 0.068 0.113 0.113 0.226 0.226 0.474 0.406 0.677 0.564 0.045-0.609 0.384-1.015 1.331-0.97 1.264 0.045 3.611 0.293 6.341-1.173v0-7.515c0.045-1.286-0.384-1.805-1.58-1.805zM13.315 16.519c-1.331 0-2.437-1.015-2.437-2.279s1.083-2.279 2.437-2.279c1.331 0 2.437 1.015 2.437 2.279 0 1.241-1.106 2.279-2.437 2.279zM18.956 16.519c-1.331 0-2.437-1.015-2.437-2.279s1.083-2.279 2.437-2.279 2.437 1.015 2.437 2.279c0 1.241-1.083 2.279-2.437 2.279z"></path>
<path d="M16 0c-8.846 0-16 7.154-16 16s7.154 16 16 16 16-7.176 16-16c0-8.824-7.154-16-16-16zM25.771 16.203v0c-0.722 0.88-2.099 1.986-4.197 2.843 2.212 7.56-5.416 8.779-5.303 4.897 0 0.068-0.023-2.076-0.023-3.678-0.158-0.045-0.338-0.068-0.542-0.135 0 1.602-0.023 3.882-0.023 3.814 0.135 3.882-7.515 2.663-5.303-4.897-2.099-0.858-3.475-1.941-4.197-2.843-0.361-0.542 0.045-1.106 0.632-0.7 0.068 0.045 0.158 0.113 0.248 0.158v-7.831c0-1.083 0.812-1.963 1.805-1.963h14.172c0.993 0 1.805 0.88 1.805 1.963v7.853l0.226-0.158c0.677-0.429 1.061 0.135 0.7 0.677z"></path>
</svg>
