<!-- Generated by IcoMoon.io -->
<svg version="1.1" xmlns="http://www.w3.org/2000/svg" width="32" height="32" viewBox="0 0 32 32">
<title>spotify</title>
<path d="M16 0c-8.824 0-16 7.154-16 16 0 8.824 7.154 16 16 16s16-7.154 16-16-7.154-16-16-16zM22.319 24.169c-0.316 0-0.542-0.113-0.767-0.271-2.166-1.309-4.829-2.008-7.74-2.008-1.489 0-3.069 0.181-4.739 0.519l-0.203 0.045c-0.203 0.045-0.429 0.113-0.587 0.113-0.677 0-1.196-0.519-1.196-1.196s0.384-1.151 1.015-1.286c1.986-0.451 3.859-0.677 5.732-0.677 3.362 0 6.386 0.79 8.959 2.324 0.451 0.248 0.722 0.564 0.722 1.219 0 0.7-0.542 1.219-1.196 1.219zM23.989 19.52c-0.384 0-0.632-0.135-0.835-0.271-3.904-2.302-9.681-3.069-14.465-1.805-0.090 0.023-0.158 0.045-0.226 0.068-0.181 0.045-0.338 0.113-0.587 0.113-0.79 0-1.422-0.632-1.422-1.422 0-0.767 0.406-1.286 1.106-1.489 1.851-0.496 3.566-0.835 6.048-0.835 4.017 0 7.921 1.015 10.968 2.843 0.564 0.316 0.812 0.745 0.812 1.399 0.023 0.767-0.632 1.399-1.399 1.399zM25.862 14.217c-0.361 0-0.564-0.090-0.903-0.271-2.64-1.58-6.77-2.527-11.035-2.527-2.234 0-4.243 0.248-6.003 0.722-0.068 0.023-0.113 0.023-0.181 0.045-0.181 0.045-0.429 0.113-0.654 0.113-0.948 0-1.67-0.745-1.67-1.693 0-0.812 0.451-1.444 1.241-1.67 2.121-0.632 4.581-0.948 7.289-0.948 4.874 0 9.501 1.083 12.705 2.956 0.609 0.338 0.903 0.858 0.903 1.58-0.023 0.97-0.745 1.693-1.693 1.693z"></path>
</svg>
