<!-- Generated by IcoMoon.io -->
<svg version="1.1" xmlns="http://www.w3.org/2000/svg" width="32" height="32" viewBox="0 0 32 32">
<title>stackoverflow</title>
<path d="M16 0c-8.846 0-16 7.154-16 16s7.154 16 16 16 16-7.176 16-16c0-8.824-7.154-16-16-16zM15.549 7.289c0 0 5.664 4.333 8.192 6.296l-1.264 1.647-8.192-6.296 1.264-1.647zM11.532 14.849l10.087 2.234-9.365-4.355 0.88-1.873 9.365 4.355-0.88 1.873-0.451 2.008-10.087-2.234 0.451-2.008zM10.832 19.092h10.336v2.076h-10.336v-2.076zM24.26 24.26h-16.519v-6.206h2.076v4.13h12.389v-4.13h2.076l-0.023 6.206z"></path>
</svg>
