<!-- Generated by IcoMoon.io -->
<svg version="1.1" xmlns="http://www.w3.org/2000/svg" width="32" height="32" viewBox="0 0 32 32">
<title>stumbleupon</title>
<path d="M16.011 0c-8.83 0-16.011 7.159-16.011 16.011s7.159 16.011 16.011 16.011 16.011-7.159 16.011-16.011-7.181-16.011-16.011-16.011zM16.011 12.308c-0.497 0-0.881 0.406-0.881 0.881v5.284c0 2.078-1.694 3.771-3.771 3.771s-3.771-1.694-3.771-3.771v-2.213h2.891v2.213c0 0.497 0.406 0.881 0.881 0.881s0.881-0.384 0.881-0.881v-5.284c0-2.078 1.694-3.749 3.771-3.749s3.771 1.694 3.771 3.771v1.016l-1.739 0.565-1.152-0.565v-1.016c0-0.497-0.384-0.903-0.881-0.903zM24.435 18.473c0 2.078-1.694 3.771-3.771 3.771s-3.771-1.694-3.771-3.771v-2.258l1.152 0.565 1.739-0.565v2.258c0 0.497 0.407 0.881 0.881 0.881s0.881-0.384 0.881-0.881v-2.213h2.891v2.213z"></path>
</svg>
