<!-- Generated by IcoMoon.io -->
<svg version="1.1" xmlns="http://www.w3.org/2000/svg" width="32" height="32" viewBox="0 0 32 32">
<title>telegram</title>
<path d="M20.265 11.735l-9.41 5.822c-0.158 0.113-0.248 0.293-0.181 0.496l1.264 4.062c0.023 0.090 0.158 0.068 0.158-0.023l0.316-2.731c0.023-0.113 0.068-0.203 0.135-0.271l7.966-7.041c0.181-0.158-0.023-0.451-0.248-0.316z"></path>
<path d="M16 0c-8.824 0-16 7.154-16 16 0 8.824 7.154 16 16 16 8.824 0 16-7.154 16-16s-7.176-16-16-16zM23.853 9.975l-2.934 13.992c-0.135 0.654-0.903 0.948-1.444 0.564l-4.423-3.25-2.257 2.302c-0.406 0.406-1.083 0.248-1.241-0.293l-1.625-5.168-4.355-1.286c-0.564-0.158-0.609-0.97-0.045-1.173l17.151-6.68c0.632-0.271 1.309 0.293 1.173 0.993z"></path>
</svg>
