<!-- Generated by IcoMoon.io -->
<svg version="1.1" xmlns="http://www.w3.org/2000/svg" width="32" height="32" viewBox="0 0 32 32">
<title>twitter</title>
<path d="M16 0c-8.824 0-16 7.154-16 16s7.154 16 16 16c8.824 0 16-7.154 16-16s-7.176-16-16-16zM24.169 12.254c0 0.181 0 0.338 0 0.519 0 5.326-4.017 11.396-11.396 11.396-2.279 0-4.378-0.654-6.138-1.805 0.316 0.023 0.632 0.068 0.948 0.068 1.873 0 3.611-0.632 4.965-1.715-1.76-0.023-3.25-1.173-3.746-2.776 0.226 0.068 0.496 0.068 0.745 0.068 0.384 0 0.722-0.068 1.061-0.135-1.828-0.384-3.227-1.986-3.227-3.927v-0.068c0.542 0.293 1.151 0.496 1.805 0.496-1.083-0.722-1.783-1.963-1.783-3.34 0-0.745 0.203-1.444 0.542-2.008 1.986 2.415 4.942 4.017 8.282 4.197-0.068-0.293-0.113-0.609-0.113-0.925 0-2.212 1.783-4.017 4.017-4.017 1.151 0 2.189 0.496 2.934 1.264 0.925-0.181 1.783-0.519 2.55-0.97-0.293 0.948-0.925 1.715-1.76 2.212 0.812-0.090 1.58-0.316 2.302-0.632-0.519 0.812-1.173 1.535-1.986 2.099v0z"></path>
</svg>
