<!-- Generated by IcoMoon.io -->
<svg version="1.1" xmlns="http://www.w3.org/2000/svg" width="32" height="32" viewBox="0 0 32 32">
<title>youtube</title>
<path d="M18.663 15.707l-3.746-1.738c-0.316-0.158-0.587 0.023-0.587 0.384v3.295c0 0.361 0.271 0.542 0.587 0.384l3.746-1.738c0.338-0.181 0.338-0.429 0-0.587zM16 0c-8.824 0-16 7.154-16 16s7.154 16 16 16c8.846 0 16-7.154 16-16s-7.176-16-16-16zM16 22.499c-8.192 0-8.327-0.745-8.327-6.499s0.135-6.499 8.327-6.499 8.327 0.745 8.327 6.499-0.135 6.499-8.327 6.499z"></path>
</svg>
