<!-- Generated by IcoMoon.io -->
<svg version="1.1" xmlns="http://www.w3.org/2000/svg" width="32" height="32" viewBox="0 0 32 32">
<title>500px</title>
<path d="M16.011 0c-8.852 0-16.011 7.159-16.011 16.011s7.159 16.011 16.011 16.011c8.852 0 16.011-7.181 16.011-16.011s-7.159-16.011-16.011-16.011zM22.809 11.472c-0.113 0.136-0.271 0.271-0.407 0.271-0.068 0-0.113-0.023-0.181-0.068-0.745-0.655-1.445-1.107-2.168-1.4-0.926-0.384-1.897-0.587-2.913-0.587-0.881 0-1.874 0.181-2.755 0.519-0.271 0.113-0.406-0.248-0.474-0.384-0.068-0.158-0.090-0.294-0.090-0.406s0.068-0.181 0.158-0.203c0.858-0.361 2.032-0.587 3.139-0.587v0c1.152 0 2.281 0.226 3.342 0.655 0.971 0.406 1.761 0.926 2.484 1.603 0.203 0.158 0.068 0.361-0.136 0.587zM11.698 18.518c0.316-0.090 0.542-0.136 0.632 0.113 0.248 0.677 0.632 1.332 1.016 1.761v0c0-0.858 0-3.455 0-3.568v-0.023c0-0.881 0.384-1.784 1.061-2.439 0.723-0.7 1.649-1.084 2.665-1.084 2.055 0 3.726 1.671 3.726 3.704 0 2.055-1.671 3.749-3.749 3.749-0.407 0-0.723-0.023-1.174-0.181-0.045-0.023-0.294-0.113-0.136-0.632 0.045-0.136 0.158-0.542 0.452-0.452 0.023 0 0.542 0.136 0.813 0.136 1.468 0 2.597-1.129 2.597-2.597 0-0.677-0.271-1.332-0.745-1.807-0.497-0.474-1.152-0.745-1.852-0.745-0.723 0-1.4 0.294-1.874 0.836-0.429 0.474-0.678 1.107-0.678 1.694v4.358c0.745 0.452 1.626 0.7 2.552 0.7 1.355 0 2.665-0.542 3.591-1.468 0.948-0.948 1.468-2.213 1.468-3.568 0-1.332-0.519-2.597-1.49-3.568-0.948-0.948-2.213-1.468-3.568-1.468s-2.642 0.519-3.591 1.468c0 0-0.61 0.61-0.813 0.903l-0.023 0.023c-0.136 0.181-0.248 0.339-0.768 0.226-0.271-0.045-0.565-0.226-0.565-0.452v-7.159c0-0.181 0.158-0.407 0.406-0.407h9.236c0.316 0 0.316 0.429 0.316 0.587 0 0.136 0 0.565-0.316 0.587h-8.536v5.081c0.587-0.61 1.603-1.265 2.213-1.513 0.745-0.316 1.603-0.497 2.439-0.497s1.649 0.158 2.394 0.497c0.745 0.316 1.4 0.745 1.965 1.332 0.565 0.565 1.016 1.219 1.332 1.965 0.316 0.768 0.497 1.581 0.497 2.394s-0.158 1.649-0.497 2.394c-0.316 0.745-0.745 1.4-1.332 1.965-0.565 0.565-1.219 1.016-1.965 1.332-0.768 0.316-1.581 0.497-2.394 0.497-0.836 0-1.649-0.158-2.394-0.497-0.745-0.316-1.4-0.745-1.965-1.332-0.565-0.565-1.016-1.242-1.332-1.965-0.045-0.136-0.158-0.407-0.158-0.407v0c0-0.316 0.406-0.429 0.542-0.474zM15.718 16.395c-0.113-0.113-0.068-0.271 0.158-0.474 0.113-0.113 0.226-0.181 0.316-0.181 0.045 0 0.090 0.023 0.136 0.045l0.7 0.7 0.677-0.678c0.113-0.113 0.316-0.068 0.497 0.136 0.136 0.135 0.271 0.316 0.113 0.474l-0.7 0.7 0.655 0.655c0.068 0.068 0.203 0.226-0.068 0.519-0.113 0.113-0.226 0.181-0.339 0.181-0.068 0-0.136-0.045-0.203-0.113l-0.655-0.655c-0.068 0.045-0.632 0.655-0.7 0.7-0.023 0.023-0.068 0.068-0.158 0.068-0.113 0-0.203-0.068-0.339-0.181l-0.023-0.023c-0.068-0.068-0.181-0.181-0.181-0.294v0c0-0.068 0.023-0.136 0.090-0.181l0.7-0.7-0.678-0.7zM23.306 22.877c-0.023 0.023-0.068 0.068-0.068 0.068-0.79 0.79-1.716 1.4-2.733 1.829-1.061 0.452-2.191 0.677-3.342 0.677s-2.281-0.226-3.342-0.677c-1.016-0.429-1.942-1.061-2.733-1.829-0.79-0.79-1.4-1.716-1.829-2.733-0.271-0.632-0.452-1.31-0.565-1.987v0c-0.045-0.294 0.361-0.361 0.497-0.384 0.316-0.045 0.542-0.023 0.587 0.203 0 0 0 0.023 0 0.045 0.045 0.203 0.158 0.836 0.497 1.671 0.339 0.858 0.881 1.649 1.603 2.371 0.678 0.677 1.49 1.219 2.371 1.603 0.926 0.384 1.897 0.587 2.913 0.587s1.987-0.203 2.913-0.587c0.881-0.384 1.694-0.903 2.371-1.603l0.068-0.068c0.068-0.068 0.158-0.090 0.271-0.068 0.090 0.023 0.203 0.113 0.339 0.248 0.339 0.361 0.248 0.519 0.181 0.632z"></path>
</svg>
