<!-- Generated by IcoMoon.io -->
<svg version="1.1" xmlns="http://www.w3.org/2000/svg" width="32" height="32" viewBox="0 0 32 32">
<title>foursquare</title>
<path d="M11.946 20.867l2.845-2.823c0.226-0.226 0.565-0.339 0.926-0.339h2.755l0.79-2.484h-3.546c-0.7 0-1.265-0.565-1.265-1.265s0.565-1.265 1.265-1.265h4.336c0 0 0.7-2.484 0.7-2.394h-8.807v10.569z"></path>
<path d="M16.011 0c-8.852 0-16.011 7.204-16.011 16.011s7.136 16.011 16.011 16.011 16.011-7.204 16.011-16.011-7.159-16.011-16.011-16.011zM23.622 9.53l-3.071 9.756c-0.113 0.565-0.565 0.926-1.152 0.926h-3.207l-4.562 4.539c-0.226 0.226-0.565 0.339-0.926 0.339-0.113 0-0.339 0-0.452-0.113-0.452-0.226-0.79-0.7-0.79-1.152v-14.769c0-0.7 0.565-1.265 1.265-1.265h11.766c0.452 0 0.79 0.113 1.016 0.452 0.226 0.384 0.226 0.723 0.113 1.287z"></path>
</svg>
