<!-- Generated by IcoMoon.io -->
<svg version="1.1" xmlns="http://www.w3.org/2000/svg" width="32" height="32" viewBox="0 0 32 32">
<title>quora</title>
<path d="M14.969 8.156c-2.494 0-4.512 2.981-4.512 6.662s2.019 6.662 4.512 6.662c0.506 0 1-0.125 1.456-0.356-0.675-1.2-1.256-2.25-2.012-2.425-1.2-0.275-1.681 0-1.681 0l-0.475-0.988c0.506-0.419 2.113-1.256 3.975-0.837 1.050 0.238 1.781 0.981 2.394 1.856 0.544-1.1 0.863-2.45 0.863-3.919-0.006-3.675-2.025-6.656-4.519-6.656z"></path>
<path d="M16 0c-8.838 0-16 7.162-16 16s7.162 16 16 16 16-7.163 16-16c0-8.838-7.163-16-16-16zM21.006 25.156c-1.775 0-2.913-1.275-3.806-2.7-0.706 0.219-1.456 0.337-2.231 0.337-4.275 0-7.737-3.575-7.737-7.981s3.462-7.981 7.737-7.981 7.738 3.581 7.738 7.987c0 2.444-1.063 4.625-2.744 6.094 0.587 0.913 1.219 1.619 2.144 1.619 1.194 0 1.288-1.313 1.288-1.313v0h1.375c0-0.006-0.15 3.938-3.762 3.938z"></path>
</svg>
