<!-- Generated by IcoMoon.io -->
<svg version="1.1" xmlns="http://www.w3.org/2000/svg" width="32" height="32" viewBox="0 0 32 32">
<title>slack</title>
<path d="M13.572 14.679c0.384 1.197 0.813 2.484 1.197 3.681l3.681-1.197-1.197-3.681c-1.197 0.384-2.484 0.813-3.681 1.197z"></path>
<path d="M16.011 0c-8.83 0-16.011 7.159-16.011 16.011s7.159 15.989 16.011 15.989c8.83 0 16.011-7.159 16.011-16.011s-7.181-15.989-16.011-15.989zM24.615 18.834c0 0-0.7 0.226-1.761 0.565 0.361 1.107 0.587 1.807 0.587 1.807 0.294 0.903-0.271 1.897-1.197 2.168-0.881 0.248-1.807-0.226-2.123-1.084l-0.587-1.807c-1.197 0.384-2.484 0.813-3.681 1.197 0.361 1.107 0.587 1.807 0.587 1.807 0.294 0.903-0.271 1.897-1.197 2.168-0.881 0.248-1.807-0.226-2.123-1.084l-0.587-1.807c-1.107 0.361-1.807 0.587-1.829 0.587-0.903 0.294-1.897-0.271-2.168-1.197-0.248-0.881 0.226-1.807 1.084-2.123l1.807-0.587-1.197-3.681c-1.084 0.361-1.807 0.587-1.807 0.587-0.903 0.294-1.897-0.271-2.168-1.197-0.248-0.881 0.226-1.807 1.084-2.123l1.807-0.587-0.565-1.761c-0.294-0.926 0.203-1.897 1.129-2.191s1.897 0.203 2.213 1.129c0 0 0.226 0.7 0.565 1.761l3.681-1.197-0.565-1.761c-0.294-0.926 0.203-1.897 1.129-2.213 0.926-0.294 1.897 0.203 2.191 1.129 0 0 0.226 0.7 0.565 1.761l1.761-0.565c0.926-0.294 1.897 0.203 2.213 1.129 0.294 0.926-0.203 1.897-1.129 2.213 0 0-0.7 0.226-1.761 0.565 0.384 1.197 0.813 2.484 1.197 3.681l1.761-0.565c0.926-0.294 1.897 0.203 2.213 1.129 0.294 0.858-0.203 1.852-1.129 2.145z"></path>
</svg>
