<!-- Generated by IcoMoon.io -->
<svg version="1.1" xmlns="http://www.w3.org/2000/svg" width="32" height="32" viewBox="0 0 32 32">
<title>snapchat</title>
<path d="M26.629 21.236c0-0.293-0.158-0.496-0.451-0.564-1.896-0.406-3.34-1.738-4.13-3.475-0.068-0.158-0.135-0.338-0.135-0.519 0-0.948 2.595-0.745 2.595-2.076 0-0.564-0.677-0.925-1.196-0.925-0.474 0-0.858 0.338-1.309 0.338-0.090 0-0.158-0.023-0.248-0.045 0.045-0.79 0.113-1.58 0.113-2.37 0-0.722-0.045-1.738-0.361-2.37-0.993-2.166-2.934-3.43-5.303-3.43-2.595 0-4.581 0.948-5.732 3.43-0.316 0.654-0.361 1.647-0.361 2.37 0 0.79 0.068 1.58 0.113 2.37-0.090 0.045-0.181 0.045-0.293 0.045-0.474 0-0.858-0.316-1.286-0.316-0.519 0-1.173 0.338-1.173 0.925 0 1.286 2.595 1.128 2.595 2.054 0 0.181-0.090 0.361-0.135 0.519-0.812 1.76-2.212 3.069-4.13 3.475-0.293 0.068-0.451 0.271-0.451 0.564 0 0.948 2.212 1.309 2.843 1.422 0.181 0.496 0.113 1.377 0.858 1.377 0.519 0 1.038-0.181 1.602-0.181 2.189 0 2.776 1.986 5.303 1.986 2.64 0 3.137-1.986 5.348-1.986 0.564 0 1.083 0.158 1.625 0.158 0.722 0 0.654-0.88 0.835-1.354 0.677-0.113 2.866-0.451 2.866-1.422v0zM32 16c0 8.824-7.154 16-16 16s-16-7.154-16-16 7.154-16 16-16 16 7.176 16 16z"></path>
</svg>
