<!-- Generated by IcoMoon.io -->
<svg version="1.1" xmlns="http://www.w3.org/2000/svg" width="32" height="32" viewBox="0 0 32 32">
<title>vimeo</title>
<path d="M16 0c-8.824 0-16 7.154-16 16s7.154 16 16 16 16-7.154 16-16c0-8.846-7.176-16-16-16zM25.162 12.051c-1.061 6.025-6.928 11.171-8.711 12.322-1.76 1.151-3.408-0.474-3.949-1.715-0.677-1.399-2.663-9.072-3.204-9.681s-2.099 0.654-2.099 0.654l-0.767-1.015c0 0 3.204-3.904 5.642-4.378 2.573-0.496 2.573 4.040 3.204 6.567 0.587 2.437 1.016 3.836 1.535 3.836s1.535-1.377 2.64-3.453c1.106-2.099-0.045-3.949-2.189-2.64 0.812-5.281 8.937-6.544 7.898-0.496z"></path>
</svg>
