<!-- Generated by IcoMoon.io -->
<svg version="1.1" xmlns="http://www.w3.org/2000/svg" width="32" height="32" viewBox="0 0 32 32">
<title>vine</title>
<path d="M16 0c-8.824 0-16 7.154-16 16s7.154 16 16 16 16-7.154 16-16c0-8.846-7.176-16-16-16zM19.949 9.478c-0.745 0-1.309 0.722-1.309 2.121 0 2.866 1.828 4.491 4.152 4.491 0.429 0 0.903-0.045 1.377-0.158v2.212c-0.79 0.158-1.557 0.248-2.212 0.248-1.557 3.272-4.378 6.093-5.303 6.635-0.587 0.338-1.151 0.361-1.828-0.023-1.151-0.7-5.506-4.265-6.973-15.504h3.159c0.812 6.748 2.753 10.223 4.874 12.796 1.173-1.173 2.324-2.753 3.227-4.536-2.121-1.083-3.408-3.453-3.408-6.183 0-2.776 1.602-4.874 4.333-4.874 2.663 0 4.107 1.647 4.107 4.513 0 1.061-0.226 2.279-0.654 3.182-1.986 0.384-2.685-0.858-2.685-0.858 0.135-0.474 0.338-1.309 0.338-2.076 0-1.309-0.474-1.986-1.196-1.986z"></path>
</svg>
