<!-- Generated by IcoMoon.io -->
<svg version="1.1" xmlns="http://www.w3.org/2000/svg" width="32" height="32" viewBox="0 0 32 32">
<title>vk</title>
<path d="M16 0c-8.846 0-16 7.154-16 16s7.154 16 16 16c8.846 0 16-7.154 16-16s-7.154-16-16-16zM25.162 23.018l-2.798 0.045c0 0-0.609 0.113-1.399-0.429-1.038-0.722-2.031-2.595-2.798-2.347-0.79 0.248-0.767 1.941-0.767 1.941s0 0.361-0.181 0.542c-0.181 0.203-0.564 0.248-0.564 0.248h-1.264c0 0-2.776 0.158-5.213-2.392-2.663-2.753-5.010-8.26-5.010-8.26s-0.135-0.361 0.023-0.542 0.609-0.203 0.609-0.203l3.001-0.023c0 0 0.293 0.045 0.496 0.203 0.181 0.135 0.271 0.361 0.271 0.361s0.496 1.241 1.128 2.347c1.241 2.166 1.828 2.64 2.257 2.415 0.609-0.338 0.429-3.069 0.429-3.069s0-0.97-0.316-1.422c-0.248-0.338-0.722-0.451-0.925-0.474-0.158-0.023 0.113-0.406 0.474-0.587 0.542-0.271 1.489-0.293 2.618-0.271 0.88 0 1.128 0.045 1.467 0.135 1.038 0.248 0.677 1.196 0.677 3.52 0 0.722-0.135 1.783 0.406 2.121 0.226 0.135 0.79 0.023 2.189-2.37 0.677-1.128 1.173-2.46 1.173-2.46s0.090-0.226 0.271-0.338c0.181-0.090 0.406-0.068 0.406-0.068l3.159-0.023c0 0 0.948-0.113 1.106 0.316 0.158 0.451-0.361 1.512-1.647 3.227-2.099 2.821-2.347 2.573-0.587 4.197 1.67 1.557 2.008 2.324 2.076 2.415 0.7 1.151-0.767 1.241-0.767 1.241z"></path>
</svg>
