<!-- Generated by IcoMoon.io -->
<svg version="1.1" xmlns="http://www.w3.org/2000/svg" width="32" height="32" viewBox="0 0 32 32">
<title>yahoo</title>
<path d="M16 0c-8.824 0-16 7.154-16 16 0 8.824 7.154 16 16 16s16-7.154 16-16c-0.023-8.846-7.176-16-16-16zM21.281 13.044c-0.451 0.135-4.987 3.656-5.281 4.513-0.068 0.293 0 2.979 0.068 3.408l2.956 0.045-0.045 0.948c-0.361-0.023-2.934 0-4.401 0-0.745 0-2.956 0.023-3.678 0v-0.993c0.406-0.023 2.685 0.135 2.911-0.181 0.181-0.203 0.090-2.911 0.023-3.362-0.158-0.496-4.378-5.619-5.348-6.432h-2.505v-1.015h8.034v0.090h0.023l-0.023 0.203v0.722h-2.121c1.151 1.738 2.776 4.085 3.453 5.1l3.408-3.159h-2.008l-0.293-1.015h7.425l-0.045 0.090h0.023l-0.519 0.587h-0.023l-0.203 0.338h-1.377l-0.451 0.113zM23.334 21.98l-0.7-0.045-0.654-0.045v-1.331l0.812 0.090 0.745 0.023-0.203 1.309zM23.492 19.746l-1.286-0.090-0.023-5.642c0.293 0.045 2.573 0.248 2.821 0.271l-1.512 5.461z"></path>
</svg>
