<?xml version="1.0" encoding="utf-8"?>
<!-- Generator: Adobe Illustrator 24.0.2, SVG Export Plug-In . SVG Version: 6.00 Build 0)  -->
<svg version="1.1" id="Capa_1" xmlns="http://www.w3.org/2000/svg" xmlns:xlink="http://www.w3.org/1999/xlink" x="0px" y="0px"
	 viewBox="0 0 1920 1080" style="enable-background:new 0 0 1920 1080;" xml:space="preserve">
<style type="text/css">
	.st0{fill:#DB4446;}
	.st1{fill:none;}
	.st2{fill:#FFFFFF;}
	.st3{fill:#95C33A;}
	.st4{fill-rule:evenodd;clip-rule:evenodd;fill:#46483C;}
	.st5{fill-rule:evenodd;clip-rule:evenodd;fill:#FFFFFF;}
	.st6{fill:#CC3534;}
</style>
<g>
	<rect x="1280" class="st0" width="640" height="1080"/>
	<g>
		<path class="st0" d="M1749.5,225.4L1749.5,225.4c1.6-1.9-1.6-7.4-6.9-12.1c-5.3-4.7-11-6.3-12.8-4.5l0,0l-79.5,83.6l-16.3,63.1
			c-10.9-0.4-22.3-0.5-34.1-0.5c-82.8,0-149.9,9.3-149.9,20.7l1.9,11.1l17.7,162.8l4.8,50.1l9.8,103.2l7.1,12.4l19.3,32.9l7.5,102.9
			c0,11.5,36.7,20.9,81.9,20.9s81.9-9.3,81.9-20.9l6-104l18.2-31.9l6.9-12.3l14.1-122.7l1.9-16l19.1-177.3l1.7-11.1
			c0-8.4-36-15.6-87.8-18.8l13-52.8L1749.5,225.4z"/>
		<g>
			<path class="st1" d="M1642,383.1c-7.9,0-14.3-1.4-14.3-3.1c0-0.2,0-0.3,0.1-0.4l0.2-0.9c-2.4,0.8-3.8,1.9-3.8,3
				c0,2.7,8,4.9,17.8,4.9s17.8-2.2,17.8-4.9c0-1-1.2-2-3.2-2.8l-0.3,1.1C1656.3,381.7,1649.9,383.1,1642,383.1z"/>
			<path class="st2" d="M1598.6,732c-28.1,0.1-56.1-3-83.4-9.3c-8.1-1.8-16.1-4.3-23.9-7.4l19.3,32.9l7.5,102.9
				c0,11.5,36.7,20.9,81.9,20.9c45.2,0,81.9-9.3,81.9-20.9l6-104l18.2-31.9c-7.8,3.1-15.9,5.6-24.1,7.5
				C1654.7,729,1626.7,732.1,1598.6,732z"/>
			<path class="st2" d="M1706.7,397L1706.7,397c-28.6,3.9-66.4,6.2-106.7,6.2c-40.3,0-78.1-2.2-106.7-6.2c-14.1-2-25.3-4.3-33.3-6.9
				c-2.8-0.9-5.6-2-8.2-3.4l17.7,162.8c0.8-2.8,1.7-5.6,2.8-8.4c2.1-5.7,4.5-11.3,7.2-16.8c2.7-5.3,5.6-10.5,8.9-15.5
				c3.1-4.7,6.5-9.2,10.3-13.4c3.4-3.8,7.1-7.4,11.1-10.5c3.5-2.8,7.4-5.1,11.6-6.9c3.6-1.6,7.6-2.5,11.6-2.5
				c4.5,0,8.9,1.3,12.7,3.6c4.7,3,8.6,6.9,11.5,11.7c0.8,1.1,1.3,2.3,1.5,3.6c0.2,1.1,0.3,2.3,0.3,3.5c0.1,2.2-0.5,4.3-1.8,6.1
				c-1,1.4-2.7,2.1-4.4,2.2c-1.7-0.1-3.3-1-4.3-2.4c-1.7-2.2-3.2-4.5-4.5-7c-1.2-2.4-2.9-4.4-5.1-6c-1.8-1.2-3.9-1.9-6.1-1.9
				c-3.4,0-7,1.4-10.8,4.2c-4.2,3.2-8.1,6.9-11.4,11.1c-4,5-7.6,10.2-10.8,15.8c-3.4,5.9-6.5,11.9-9.2,18.2
				c-2.6,6-4.7,12.1-6.3,18.4c-1.5,5.3-2.3,10.8-2.4,16.3c0,1.7,0.1,3.3,0.3,4.9c0.2,1.6,0.6,3.1,1.2,4.6c0.5,1.3,1.4,2.5,2.5,3.4
				s2.5,1.4,3.9,1.3c2.1-0.1,4.2-0.7,6.1-1.8c2.5-1.3,4.9-2.9,7.1-4.7c2.6-2.1,5-4.2,7.4-6.6c2.5-2.5,4.8-4.9,6.9-7.5
				c2.1-2.5,4-4.9,5.6-7.2c1.4-1.9,2.6-3.9,3.7-6l6.7-20.2c0.6-1.8,1.7-3.4,3.2-4.6c1.2-0.9,2.6-1.3,4.1-1.3c0.7,0,1.4,0.1,2,0.3
				c1.4,0.5,2.6,1.6,3.1,3c0.3,0.9,0.5,1.8,0.5,2.7c0,2.6-0.2,5.2-0.7,7.7c-0.5,2.4-1.1,4.7-1.8,7c-0.7,2.3-1.6,4.6-2.5,6.9
				s-1.8,4.7-2.6,7.2c-0.4,0.9-0.8,1.8-1.1,2.7c-0.5,1.5-1.1,3.4-1.8,5.7c-0.7,2.3-1.5,4.9-2.4,7.7s-1.7,5.7-2.6,8.7
				c-0.9,2.9-1.7,5.8-2.6,8.7c-0.9,2.8-1.6,5.4-2.2,7.7s-1.2,4.2-1.6,5.7s-0.7,2.5-0.8,2.8c-0.3,1-0.7,2.1-1.2,3
				c-0.5,1.1-1.2,2.2-1.9,3.2c-0.7,0.9-1.5,1.8-2.4,2.5c-0.7,0.6-1.7,1-2.6,1c-1.3,0.1-2.6-0.5-3.4-1.5c-0.7-1-1.1-2.9-1.1-5.7V613
				c0-0.4,0-0.9,0-1.3c0.2-1.7,0.6-3.5,1.1-5.2c0.7-2.5,1.5-5.3,2.4-8.5s2-6.5,3-9.9c1.1-3.4,2.1-6.4,2.9-9.2
				c-2.6,2.9-5.3,5.7-8.3,8.5c-2.9,2.8-6,5.3-9.2,7.6c-3,2.2-6.1,4-9.5,5.5c-2.9,1.4-6,2.1-9.2,2.2c-3.1,0.1-6.1-0.7-8.7-2.2
				c-0.4-0.3-0.9-0.6-1.3-0.9l9.8,103.2c2.6,6.4,50.8,22.2,114.4,22.2s111.9-15.8,114.4-22.2l14.1-122.7c-1.2,1.1-2.3,2.1-3.4,3.2
				c-3.7,3.4-7.5,6.7-11.5,9.7c-3.2,2.5-6.8,4.6-10.5,6.3c-3.5,1.5-7.2,2.3-11,2.2c-3,0.2-6-0.7-8.5-2.4c-2-1.6-3.1-4-3-6.6v-0.6
				c0-0.2,0-0.5,0.1-0.7c0.3-2.1,1.1-4.1,2.2-5.9c1.4-2.4,3-4.7,4.7-6.9c1.8-2.4,3.8-4.8,5.9-7.3s4-4.8,5.8-7c1.6-1.9,3-4,4.4-6.1
				c1-1.3,1.6-2.8,1.7-4.5c0-0.6-0.2-1.2-0.7-1.6c-0.7-0.5-1.5-0.7-2.4-0.6c-2.1,0-4.1,0.6-6,1.5c-2.2,1.1-4.2,2.4-6.1,4
				c-2.1,1.8-4.1,3.7-5.9,5.8c-1.9,2.2-3.7,4.4-5.4,6.8c-1.7,2.3-3.2,4.7-4.6,7.1s-2.5,4.6-3.5,6.6c-0.3,0.6-0.7,1.5-1.2,2.6
				s-1.1,2.4-1.7,3.9s-1.3,2.9-2,4.4s-1.3,2.9-1.9,4.3l-1.5,3.6c-0.5,1.1-0.8,1.8-1,2.2s-0.6,1.5-1.2,2.9s-1.2,3.1-1.9,5l-2.3,6.1
				c-0.8,2.1-1.5,4.1-2.2,6l-1.8,5c-0.5,1.4-0.9,2.4-1,2.9c-0.5,1.4-1,2.8-1.7,4.2c-0.6,1.2-1.4,2.4-2.2,3.5c-0.8,1-1.8,1.8-2.9,2.4
				c-1.1,0.6-2.4,0.9-3.6,0.9c-1.5,0.1-3.1-0.4-4.3-1.2c-1.1-0.8-1.7-2.4-1.7-4.8c0-1.2,0.2-2.4,0.4-3.5c0.3-1.2,0.7-2.4,1.1-3.6
				c0.4-1.2,0.9-2.3,1.3-3.4s0.9-2.2,1.3-3.2c2.6-5.7,5.3-11.5,8-17.2s5.3-11.4,7.8-17.1c0.5-1.2,1-2.3,1.5-3.5l-0.4,0.4
				c-2.9,2.9-6.1,5.6-9.4,8c-2.9,2.2-6,4-9.3,5.5c-2.8,1.3-5.9,2-9,2.1c-1.7,0.1-3.4-0.3-5-0.9c-1.3-0.6-2.4-1.5-3.2-2.6
				c-0.8-1.2-1.4-2.5-1.7-3.9c-0.1-0.5-0.2-1-0.3-1.6c-0.8,0.7-1.7,1.3-2.6,1.9c-2.8,2-5.7,3.7-8.8,5.1c-2.5,1.2-5.1,1.8-7.9,1.9
				c-2.1,0.1-4.2-0.8-5.6-2.3s-2.2-4.2-2.2-7.9c0.1-3.1,0.4-6.2,1.2-9.2c-1.3,2.4-2.9,4.7-4.6,6.9c-1.9,2.3-4.1,4.4-6.4,6.3
				c-2.5,1.9-5.2,3.5-8.1,4.6c-3.1,1.2-6.4,1.8-9.8,1.8c-1.6,0-3.1-0.2-4.6-0.6c-1.5-0.4-2.8-1.1-3.9-2.1c-1.2-1.1-2.1-2.4-2.6-3.9
				c-0.7-2-1.1-4-1-6.1c0-0.1,0.1-0.9,0.3-2.6c0.4-2.7,1-5.4,1.9-8c1-3.6,2.6-8.3,4.8-14.1c2.2-5.8,5.2-12.8,9.2-21
				c0.8-1.8,2-3.4,3.5-4.7c1.2-0.9,2.8-1.4,4.3-1.4c0.7,0,1.4,0.1,2.1,0.3c0.7,0.2,1.4,0.5,2,0.9c0.6,0.4,1.1,1,1.5,1.6
				c0.4,0.7,0.6,1.5,0.6,2.3c0,0.5-0.1,1.1-0.2,1.6c-0.4,1.3-0.9,2.6-1.6,3.8c-0.8,1.6-1.7,3.4-2.8,5.4c-1.1,2-2.2,4.2-3.4,6.6
				c-1.2,2.3-2.3,4.8-3.3,7.3s-1.9,5.1-2.6,7.7c-0.7,2.5-1.1,5-1.2,7.6c0,1,0.2,2,0.7,2.8c0.5,0.9,1.4,1.4,2.4,1.3
				c3.2,0,6.4-1.1,9-3.1c3-2.2,5.6-4.8,7.9-7.7c2.4-3.1,4.6-6.4,6.6-9.9c2-3.5,3.6-6.7,4.9-9.6c0.9-2,1.8-4.1,2.4-6.3
				c0.6-2.1,1.4-4.2,2.3-6.2c0.7-1.7,1.7-3.3,2.8-4.7c1.9-2.2,5.2-2.5,7.4-0.6c0.3,0.2,0.5,0.5,0.7,0.7c1,1.4,1.6,3,1.5,4.7
				c-0.1,1.5-0.4,2.9-1,4.3c-0.7,1.8-1.5,3.9-2.5,6.2c-1,2.3-2,4.7-3.1,7.3c-1.2,2.6-2.2,5.3-3.2,8c-1,2.6-1.8,5.3-2.5,8
				c-0.6,2.4-1,4.8-1,7.2c-0.2,1.5,0.8,2.9,2.3,3.1c0.3,0,0.5,0,0.8,0c1.9-0.1,3.8-0.6,5.6-1.5c2.5-1.2,4.8-2.6,7-4.3
				c0.6-0.5,1.2-1,1.8-1.5c0.6-2.6,1.4-5.2,2.4-7.8c1.7-4.5,3.4-8.9,5.1-13.3c1.7-4.4,3.3-8.4,4.8-12.1l21.9-55.3
				c0.6-1.9,1.9-3.6,3.5-4.7c1.3-0.9,2.9-1.3,4.5-1.3c1.5,0,2.9,0.5,4.1,1.5c1.3,1.2,2,2.9,1.9,4.7c0,1.1-0.2,2.2-0.6,3.3
				c-0.5,1.3-1,2.5-1.6,3.7c-1.2,2.7-2.6,6-4.3,9.9c-1.7,3.9-3.4,8.1-5.4,12.7c-1.9,4.6-3.9,9.3-5.9,14.3c-2,4.9-4,9.8-5.9,14.4
				c-1.9,4.7-3.7,9.1-5.4,13.3c-1.7,4.2-3.1,7.8-4.3,10.8c-0.6,1.5-1.1,3-1.6,4.6c-0.5,1.5-0.7,3.1-0.7,4.7c0,0.7,0.1,1.4,0.4,2
				c0.4,0.6,1,0.9,1.7,0.8c1.3-0.1,2.6-0.4,3.8-1.1c1.7-0.8,3.4-1.8,4.9-2.8c1.8-1.2,3.6-2.5,5.5-4s3.8-3.1,5.7-4.7
				c1.9-1.6,3.7-3.3,5.4-4.9c1.7-1.6,3.3-3.1,4.6-4.5c0.3-0.3,0.7-0.6,1.1-0.7c0.8-2.4,1.6-4.8,2.2-7.2c0.4-1,0.9-2.5,1.6-4.4
				c0.7-1.9,1.4-3.8,2.3-5.6c0.8-1.7,1.8-3.3,2.9-4.8c0.8-1.2,2.1-1.9,3.5-2c1.5-0.1,3,0.3,4.2,1.3c0.9,1.1,1.4,2.5,1.3,3.9
				c0,0.5-0.1,1.1-0.1,1.6c-0.1,0.7-0.2,1.5-0.4,2.4c-0.1,0.8-0.3,1.6-0.5,2.3c-0.1,0.6-0.3,1.1-0.5,1.6c1.8-1.9,3.7-3.9,5.8-5.8
				c2-1.9,4.2-3.6,6.4-5.2c2.1-1.5,4.4-2.8,6.8-3.8c2.2-0.9,4.6-1.4,6.9-1.5c1.6,0,3.2,0.2,4.7,0.7c1.5,0.4,2.9,1.1,4.2,2
				c1.2,0.9,2.3,2,3,3.3c0.8,1.4,1.2,3,1.2,4.7c-0.1,2.6-0.7,5.2-1.8,7.5c-1.3,2.8-2.7,5.5-4.5,8c-1.8,2.7-3.7,5.3-5.8,7.9
				c-2.1,2.5-4,4.9-5.8,6.9s-3.3,3.9-4.6,5.3c-0.8,0.8-1.5,1.8-1.9,3c0,0.6,0.2,1.2,0.7,1.7c0.6,0.5,1.4,0.7,2.2,0.6
				c1.3-0.2,2.5-0.6,3.6-1.4c2.3-1.4,4.6-3,6.7-4.8c2.9-2.3,6.5-5.3,10.9-9.1c3-2.6,6.6-5.7,10.6-9.3l19.1-177.4
				c-2.6,1.4-5.4,2.5-8.2,3.4C1732.1,392.7,1720.9,395.1,1706.7,397z"/>
			<path class="st2" d="M1662,356.8l13-52.8l74.5-78.6l0.1-0.1c1.6-1.8-1.6-7.3-6.9-12s-11-6.3-12.8-4.5l0,0l-79.5,83.6l-16.3,63.1
				c-10.9-0.4-22.3-0.5-34.1-0.5c-82.8,0-149.9,9.3-149.9,20.7c0,11.4,67.1,20.7,149.9,20.7s149.9-9.2,149.9-20.6
				C1749.8,367.3,1713.8,360.1,1662,356.8z M1642,386.5c-9.8,0-17.8-2.2-17.8-4.9c0-1.1,1.4-2.2,3.8-3l-0.2,0.9
				c-0.1,0.1-0.1,0.3-0.1,0.4c0,1.7,6.4,3.1,14.3,3.1s14.3-1.4,14.3-3.1l0.3-1.1c2,0.8,3.2,1.7,3.2,2.8
				C1659.8,384.4,1651.8,386.5,1642,386.5z"/>
		</g>
	</g>
</g>
<g>
	<rect class="st3" width="640" height="1080"/>
	<g>
		<g>
			<path class="st2" d="M317.1,693.2c-1.7,0-3.3-0.4-4.7-1.3l-15.1-8.9c-2.3-1.3-1.2-1.7-0.4-2c2.4-0.8,4.7-1.8,6.8-3.1
				c0.4-0.2,0.8-0.1,1.1,0.1l11.6,6.9c0.4,0.2,1,0.2,1.4,0l45.2-26.1c0.4-0.3,0.7-0.7,0.7-1.2v-52.1c0-0.5-0.3-1-0.7-1.2l-45.1-26
				c-0.4-0.2-1-0.2-1.4,0l-45.1,26c-0.4,0.3-0.7,0.7-0.7,1.2v52.1c0,0.5,0.3,1,0.7,1.2l12.4,7.1c6.7,3.4,10.8-0.6,10.8-4.6v-51.4
				c0-0.7,0.6-1.3,1.3-1.3c0,0,0,0,0,0h5.7c0.7,0,1.3,0.6,1.3,1.3v51.5c0,9-4.9,14.1-13.4,14.1c-2.6,0-4.7,0-10.4-2.8l-11.9-6.8
				c-2.9-1.7-4.7-4.8-4.7-8.2v-52.1c0-3.4,1.8-6.5,4.7-8.2l45.2-26.1c3-1.6,6.5-1.6,9.5,0l45.1,26.1c2.9,1.7,4.7,4.8,4.7,8.2v52.1
				c0,3.4-1.8,6.5-4.7,8.2l-45.1,26.1C320.4,692.7,318.8,693.2,317.1,693.2"/>
			<path class="st2" d="M331.1,657.3c-19.8,0-23.9-9.1-23.9-16.6c0-0.7,0.6-1.3,1.3-1.3c0,0,0,0,0,0h5.8c0.6,0,1.2,0.5,1.3,1.1
				c0.9,5.9,3.5,8.9,15.4,8.9c9.5,0,13.6-2.1,13.6-7.2c0-2.9-1.2-5.1-15.9-6.5c-12.4-1.2-20-3.9-20-13.8c0-9.1,7.7-14.5,20.6-14.5
				c14.5,0,21.6,5,22.5,15.8c0,0.4-0.1,0.7-0.4,1c-0.2,0.3-0.6,0.4-1,0.4h-5.9c-0.6,0-1.1-0.4-1.3-1c-1.4-6.3-4.8-8.3-14.1-8.3
				c-10.4,0-11.6,3.6-11.6,6.3c0,3.3,1.4,4.3,15.4,6.1c13.9,1.8,20.5,4.4,20.5,14.2S345.3,657.4,331.1,657.3 M386,602.1h1.5
				c0.7,0.1,1.4-0.4,1.5-1.1c0-0.1,0-0.2,0-0.2c0-1.3-0.9-1.3-1.4-1.3H386L386,602.1z M384.2,597.8h3.4c1.2,0,3.4,0,3.4,2.6
				c0.1,1.2-0.7,2.2-1.8,2.4c1.3,0.1,1.4,1,1.6,2.2c0,0.9,0.2,1.7,0.5,2.6h-2c-0.1-0.5-0.4-2.9-0.4-3.1c-0.1-0.6-0.3-0.8-1-0.8h-1.8
				v3.9h-1.9L384.2,597.8z M380.1,602.6c0,4,3.2,7.3,7.3,7.3c4,0,7.3-3.2,7.3-7.3c0-4-3.2-7.3-7.3-7.3c0,0,0,0,0,0
				C383.4,595.4,380.1,598.6,380.1,602.6 M396.1,602.6c0,4.8-3.9,8.7-8.7,8.7c-4.8,0-8.7-3.9-8.7-8.7s3.9-8.7,8.7-8.7
				C392.2,594,396.1,597.8,396.1,602.6"/>
		</g>
		<path class="st4" d="M177.3,489.3c0-2.1-1.1-4-2.9-5l-47.9-27.5c-0.8-0.5-1.7-0.7-2.6-0.8h-0.5c-0.9,0-1.8,0.3-2.6,0.8l-47.9,27.5
			c-1.8,1-2.9,3-2.9,5l0.1,74.2c0,1,0.5,2,1.4,2.5c0.9,0.5,2,0.5,2.9,0l28.5-16.3c1.8-1,2.9-3,2.9-5V510c0-2.1,1.1-4,2.9-5l12.1-7
			c0.9-0.5,1.9-0.8,2.9-0.8c1,0,2,0.3,2.9,0.8l12.1,7c1.8,1,2.9,2.9,2.9,5v34.7c0,2.1,1.1,4,2.9,5l28.4,16.3c0.9,0.5,2,0.5,2.9,0
			c0.9-0.5,1.4-1.5,1.4-2.5L177.3,489.3z M403.2,527.9c0,0.5-0.3,1-0.7,1.3l-16.5,9.5c-0.4,0.3-1,0.3-1.4,0l-16.4-9.5
			c-0.4-0.3-0.7-0.7-0.7-1.3v-19c0-0.5,0.3-1,0.7-1.3l16.4-9.5c0.5-0.3,1-0.3,1.5,0l16.4,9.5c0.5,0.3,0.7,0.7,0.7,1.3L403.2,527.9z
			 M407.7,387.3c-1.4-0.8-3.2-0.3-3.9,1.1c-0.2,0.4-0.4,0.9-0.4,1.4v73.5c0,1.1-0.9,2-2,2c-0.4,0-0.7-0.1-1-0.3l-12-6.9
			c-1.8-1-4-1-5.8,0l-47.9,27.6c-1.8,1-2.9,2.9-2.9,5v55.3c0,2.1,1.1,4,2.9,5l47.9,27.7c1.8,1,4,1,5.8,0l47.9-27.7
			c1.8-1,2.9-2.9,2.9-5V408.3c0-2.1-1.1-4-3-5.1L407.7,387.3z M567.1,508.5c1.8-1,2.9-2.9,2.9-5v-13.4c0-2.1-1.1-4-2.9-5l-47.6-27.6
			c-1.8-1-4-1-5.8,0l-47.9,27.6c-1.8,1-2.9,2.9-2.9,5v55.3c0,2.1,1.1,4,2.9,5l47.6,27.2c1.8,1,3.9,1,5.7,0l28.8-16
			c1.4-0.8,1.9-2.5,1.1-3.9c-0.3-0.5-0.6-0.8-1.1-1.1l-48.2-27.6c-0.9-0.5-1.5-1.5-1.5-2.5V509c0-1,0.5-2,1.4-2.5l15-8.6
			c0.9-0.5,2-0.5,2.9,0l15,8.6c0.9,0.5,1.4,1.5,1.5,2.5v13.6c0,1,0.6,2,1.4,2.5c0.9,0.5,2,0.5,2.9,0L567.1,508.5z"/>
		<path class="st5" d="M515.9,505.9c0.3-0.2,0.8-0.2,1.1,0l9.2,5.3c0.3,0.2,0.6,0.6,0.6,1v10.6c0,0.4-0.2,0.8-0.6,1l-9.1,5.3
			c-0.3,0.2-0.8,0.2-1.1,0l-9.2-5.3c-0.3-0.2-0.6-0.6-0.6-1v-10.6c0-0.4,0.2-0.8,0.6-1L515.9,505.9z"/>
		<path class="st2" d="M251.7,457.7l-47.6,27.5c-1.8,1-2.9,2.9-2.9,5v55c0,2.1,1.1,4,2.9,5l47.6,27.5c1.8,1,4,1,5.8,0l47.6-27.5
			c1.8-1,2.9-2.9,2.9-5v-55c0-2.1-1.1-4-2.9-5l-47.6-27.5C255.6,456.7,253.4,456.7,251.7,457.7"/>
	</g>
</g>
<g>
	<rect x="640" class="st6" width="640" height="1080"/>
	<g>
		<g>
			<polygon class="st6" points="848,638.7 848,612.5 716.7,612.4 716.8,441.2 1203.1,441.5 1203,612.6 966.7,612.5 966.7,638.8 			
				"/>
			<path class="st2" d="M723.7,448.1l472.5,0.2l-0.1,157.5l-236.3-0.1v26.3h-105v-26.3l-131.3-0.1L723.7,448.1 M710.1,434.4v13.7
				L710,605.7v13.6h13.7h117.6v26.3H855h105h13.6v-26.1l222.6,0.1h13.7v-13.7l0.1-157.5v-13.7h-13.7l-472.6-0.1H710.1z"/>
		</g>
		<path class="st6" d="M723.7,448.1l472.5,0.2l-0.1,157.5l-236.3-0.1v26.3h-105v-26.3l-131.3-0.1L723.7,448.1z M749.8,579.4h52.5
			v-78.8h26.3v78.7h26.3v-105H749.8V579.4z M881.2,474.4v131.3h52.5v-26.3h52.5v-105H881.2z M933.6,500.7h26.3v52.5h-26.3V500.7z
			 M1012.4,474.4v105h52.5v-78.7h26.3v78.7h26.3v-78.7h26.3v78.7h26.2v-105H1012.4z"/>
		<g>
			<path class="st2" d="M749.9,579.4h52.5v-78.8h26.3v78.7H855v-105H749.9V579.4z"/>
			<path class="st2" d="M881.2,474.4v131.3h52.5v-26.3h52.5v-105H881.2z M959.9,553.1h-26.3v-52.5h26.3V553.1z"/>
			<path class="st2" d="M1012.4,474.4v105h52.5v-78.7h26.3v78.7h26.3v-78.7h26.3v78.7h26.2v-105H1012.4z"/>
		</g>
	</g>
</g>
</svg>
