<?xml version="1.0" encoding="utf-8"?>
<!-- Generator: Adobe Illustrator 24.0.2, SVG Export Plug-In . SVG Version: 6.00 Build 0)  -->
<svg version="1.1" id="Capa_1" xmlns="http://www.w3.org/2000/svg" xmlns:xlink="http://www.w3.org/1999/xlink" x="0px" y="0px"
	 viewBox="0 0 1920 1080" style="enable-background:new 0 0 1920 1080;" xml:space="preserve">
<style type="text/css">
	.st0{fill:#DB4446;}
	.st1{fill:#900403;}
	.st2{fill:#DA4648;}
	.st3{fill:none;}
	.st4{fill:#FFFFFF;}
	.st5{opacity:0.7;fill:#FFFFFF;}
	.st6{font-family:'Ubuntu-Bold';}
	.st7{font-size:147px;}
	.st8{font-size:237px;}
</style>
<rect class="st0" width="1920" height="1080"/>
<polygon class="st1" points="1920,746.5 0,605.6 0,1080 1920,1080 "/>
<g>
	<path class="st2" d="M1755,168.3L1755,168.3c1.6-1.9-1.6-7.4-6.9-12.1c-5.3-4.7-11-6.3-12.8-4.5l0,0l-79.5,83.6l-16.3,63.1
		c-10.9-0.4-22.3-0.5-34.1-0.5c-82.8,0-149.9,9.3-149.9,20.7l1.9,11.1l17.7,162.8l4.8,50.1l9.8,103.2l7.1,12.4l19.3,32.9l7.5,102.9
		c0,11.5,36.7,20.9,81.9,20.9s81.9-9.3,81.9-20.9l6-104l18.2-31.9l6.9-12.3l14.1-122.7l1.9-16l19.1-177.3l1.7-11.1
		c0-8.4-36-15.6-87.8-18.8l13-52.8L1755,168.3z"/>
	<g>
		<path class="st3" d="M1647.5,326c-7.9,0-14.3-1.4-14.3-3.1c0-0.2,0-0.3,0.1-0.4l0.2-0.9c-2.4,0.8-3.8,1.9-3.8,3
			c0,2.7,8,4.9,17.8,4.9s17.8-2.2,17.8-4.9c0-1-1.2-2-3.2-2.8l-0.3,1.1C1661.8,324.6,1655.4,326,1647.5,326z"/>
		<path class="st4" d="M1604.1,674.9c-28.1,0.1-56.1-3-83.4-9.3c-8.1-1.8-16.1-4.3-23.9-7.4l19.3,32.9l7.5,102.9
			c0,11.5,36.7,20.9,81.9,20.9c45.2,0,81.9-9.3,81.9-20.9l6-104l18.2-31.9c-7.8,3.1-15.9,5.6-24.1,7.5
			C1660.2,671.9,1632.2,675,1604.1,674.9z"/>
		<path class="st4" d="M1712.2,339.9L1712.2,339.9c-28.6,3.9-66.4,6.2-106.7,6.2c-40.3,0-78.1-2.2-106.7-6.2
			c-14.1-2-25.3-4.3-33.3-6.9c-2.8-0.9-5.6-2-8.2-3.4l17.7,162.8c0.8-2.8,1.7-5.6,2.8-8.4c2.1-5.7,4.5-11.3,7.2-16.8
			c2.7-5.3,5.6-10.5,8.9-15.5c3.1-4.7,6.5-9.2,10.3-13.4c3.4-3.8,7.1-7.4,11.1-10.5c3.5-2.8,7.4-5.1,11.6-6.9
			c3.6-1.6,7.6-2.5,11.6-2.5c4.5,0,8.9,1.3,12.7,3.6c4.7,3,8.6,6.9,11.5,11.7c0.8,1.1,1.3,2.3,1.5,3.6c0.2,1.1,0.3,2.3,0.3,3.5
			c0.1,2.2-0.5,4.3-1.8,6.1c-1,1.4-2.7,2.1-4.4,2.2c-1.7-0.1-3.3-1-4.3-2.4c-1.7-2.2-3.2-4.5-4.5-7c-1.2-2.4-2.9-4.4-5.1-6
			c-1.8-1.2-3.9-1.9-6.1-1.9c-3.4,0-7,1.4-10.8,4.2c-4.2,3.2-8.1,6.9-11.4,11.1c-4,5-7.6,10.2-10.8,15.8c-3.4,5.9-6.5,11.9-9.2,18.2
			c-2.6,6-4.7,12.1-6.3,18.4c-1.5,5.3-2.3,10.8-2.4,16.3c0,1.7,0.1,3.3,0.3,4.9c0.2,1.6,0.6,3.1,1.2,4.6c0.5,1.3,1.4,2.5,2.5,3.4
			s2.5,1.4,3.9,1.3c2.1-0.1,4.2-0.7,6.1-1.8c2.5-1.3,4.9-2.9,7.1-4.7c2.6-2.1,5-4.2,7.4-6.6c2.5-2.5,4.8-4.9,6.9-7.5
			c2.1-2.5,4-4.9,5.6-7.2c1.4-1.9,2.6-3.9,3.7-6l6.7-20.2c0.6-1.8,1.7-3.4,3.2-4.6c1.2-0.9,2.6-1.3,4.1-1.3c0.7,0,1.4,0.1,2,0.3
			c1.4,0.5,2.6,1.6,3.1,3c0.3,0.9,0.5,1.8,0.5,2.7c0,2.6-0.2,5.2-0.7,7.7c-0.5,2.4-1.1,4.7-1.8,7c-0.7,2.3-1.6,4.6-2.5,6.9
			s-1.8,4.7-2.6,7.2c-0.4,0.9-0.8,1.8-1.1,2.7c-0.5,1.5-1.1,3.4-1.8,5.7c-0.7,2.3-1.5,4.9-2.4,7.7s-1.7,5.7-2.6,8.7
			c-0.9,2.9-1.7,5.8-2.6,8.7c-0.9,2.8-1.6,5.4-2.2,7.7s-1.2,4.2-1.6,5.7s-0.7,2.5-0.8,2.8c-0.3,1-0.7,2.1-1.2,3
			c-0.5,1.1-1.2,2.2-1.9,3.2c-0.7,0.9-1.5,1.8-2.4,2.5c-0.7,0.6-1.7,1-2.6,1c-1.3,0.1-2.6-0.5-3.4-1.5c-0.7-1-1.1-2.9-1.1-5.7v-1.2
			c0-0.4,0-0.9,0-1.3c0.2-1.7,0.6-3.5,1.1-5.2c0.7-2.5,1.5-5.3,2.4-8.5s2-6.5,3-9.9c1.1-3.4,2.1-6.4,2.9-9.2
			c-2.6,2.9-5.3,5.7-8.3,8.5c-2.9,2.8-6,5.3-9.2,7.6c-3,2.2-6.1,4-9.5,5.5c-2.9,1.4-6,2.1-9.2,2.2c-3.1,0.1-6.1-0.7-8.7-2.2
			c-0.4-0.3-0.9-0.6-1.3-0.9l9.8,103.2c2.6,6.4,50.8,22.2,114.4,22.2s111.9-15.8,114.4-22.2l14.1-122.7c-1.2,1.1-2.3,2.1-3.4,3.2
			c-3.7,3.4-7.5,6.7-11.5,9.7c-3.2,2.5-6.8,4.6-10.5,6.3c-3.5,1.5-7.2,2.3-11,2.2c-3,0.2-6-0.7-8.5-2.4c-2-1.6-3.1-4-3-6.6v-0.6
			c0-0.2,0-0.5,0.1-0.7c0.3-2.1,1.1-4.1,2.2-5.9c1.4-2.4,3-4.7,4.7-6.9c1.8-2.4,3.8-4.8,5.9-7.3s4-4.8,5.8-7c1.6-1.9,3-4,4.4-6.1
			c1-1.3,1.6-2.8,1.7-4.5c0-0.6-0.2-1.2-0.7-1.6c-0.7-0.5-1.5-0.7-2.4-0.6c-2.1,0-4.1,0.6-6,1.5c-2.2,1.1-4.2,2.4-6.1,4
			c-2.1,1.8-4.1,3.7-5.9,5.8c-1.9,2.2-3.7,4.4-5.4,6.8c-1.7,2.3-3.2,4.7-4.6,7.1s-2.5,4.6-3.5,6.6c-0.3,0.6-0.7,1.5-1.2,2.6
			s-1.1,2.4-1.7,3.9s-1.3,2.9-2,4.4s-1.3,2.9-1.9,4.3l-1.5,3.6c-0.5,1.1-0.8,1.8-1,2.2s-0.6,1.5-1.2,2.9s-1.2,3.1-1.9,5l-2.3,6.1
			c-0.8,2.1-1.5,4.1-2.2,6l-1.8,5c-0.5,1.4-0.9,2.4-1,2.9c-0.5,1.4-1,2.8-1.7,4.2c-0.6,1.2-1.4,2.4-2.2,3.5c-0.8,1-1.8,1.8-2.9,2.4
			c-1.1,0.6-2.4,0.9-3.6,0.9c-1.5,0.1-3.1-0.4-4.3-1.2c-1.1-0.8-1.7-2.4-1.7-4.8c0-1.2,0.2-2.4,0.4-3.5c0.3-1.2,0.7-2.4,1.1-3.6
			c0.4-1.2,0.9-2.3,1.3-3.4s0.9-2.2,1.3-3.2c2.6-5.7,5.3-11.5,8-17.2s5.3-11.4,7.8-17.1c0.5-1.2,1-2.3,1.5-3.5l-0.4,0.4
			c-2.9,2.9-6.1,5.6-9.4,8c-2.9,2.2-6,4-9.3,5.5c-2.8,1.3-5.9,2-9,2.1c-1.7,0.1-3.4-0.3-5-0.9c-1.3-0.6-2.4-1.5-3.2-2.6
			c-0.8-1.2-1.4-2.5-1.7-3.9c-0.1-0.5-0.2-1-0.3-1.6c-0.8,0.7-1.7,1.3-2.6,1.9c-2.8,2-5.7,3.7-8.8,5.1c-2.5,1.2-5.1,1.8-7.9,1.9
			c-2.1,0.1-4.2-0.8-5.6-2.3s-2.2-4.2-2.2-7.9c0.1-3.1,0.4-6.2,1.2-9.2c-1.3,2.4-2.9,4.7-4.6,6.9c-1.9,2.3-4.1,4.4-6.4,6.3
			c-2.5,1.9-5.2,3.5-8.1,4.6c-3.1,1.2-6.4,1.8-9.8,1.8c-1.6,0-3.1-0.2-4.6-0.6c-1.5-0.4-2.8-1.1-3.9-2.1c-1.2-1.1-2.1-2.4-2.6-3.9
			c-0.7-2-1.1-4-1-6.1c0-0.1,0.1-0.9,0.3-2.6c0.4-2.7,1-5.4,1.9-8c1-3.6,2.6-8.3,4.8-14.1c2.2-5.8,5.2-12.8,9.2-21
			c0.8-1.8,2-3.4,3.5-4.7c1.2-0.9,2.8-1.4,4.3-1.4c0.7,0,1.4,0.1,2.1,0.3c0.7,0.2,1.4,0.5,2,0.9s1.1,1,1.5,1.6
			c0.4,0.7,0.6,1.5,0.6,2.3c0,0.5-0.1,1.1-0.2,1.6c-0.4,1.3-0.9,2.6-1.6,3.8c-0.8,1.6-1.7,3.4-2.8,5.4c-1.1,2-2.2,4.2-3.4,6.6
			c-1.2,2.3-2.3,4.8-3.3,7.3c-1,2.5-1.9,5.1-2.6,7.7c-0.7,2.5-1.1,5-1.2,7.6c0,1,0.2,2,0.7,2.8c0.5,0.9,1.4,1.4,2.4,1.3
			c3.2,0,6.4-1.1,9-3.1c3-2.2,5.6-4.8,7.9-7.7c2.4-3.1,4.6-6.4,6.6-9.9c2-3.5,3.6-6.7,4.9-9.6c0.9-2,1.8-4.1,2.4-6.3
			c0.6-2.1,1.4-4.2,2.3-6.2c0.7-1.7,1.7-3.3,2.8-4.7c1.9-2.2,5.2-2.5,7.4-0.6c0.3,0.2,0.5,0.5,0.7,0.7c1,1.4,1.6,3,1.5,4.7
			c-0.1,1.5-0.4,2.9-1,4.3c-0.7,1.8-1.5,3.9-2.5,6.2s-2,4.7-3.1,7.3c-1.2,2.6-2.2,5.3-3.2,8c-1,2.6-1.8,5.3-2.5,8
			c-0.6,2.4-1,4.8-1,7.2c-0.2,1.5,0.8,2.9,2.3,3.1c0.3,0,0.5,0,0.8,0c1.9-0.1,3.8-0.6,5.6-1.5c2.5-1.2,4.8-2.6,7-4.3
			c0.6-0.5,1.2-1,1.8-1.5c0.6-2.6,1.4-5.2,2.4-7.8c1.7-4.5,3.4-8.9,5.1-13.3s3.3-8.4,4.8-12.1l21.9-55.3c0.6-1.9,1.9-3.6,3.5-4.7
			c1.3-0.9,2.9-1.3,4.5-1.3c1.5,0,2.9,0.5,4.1,1.5c1.3,1.2,2,2.9,1.9,4.7c0,1.1-0.2,2.2-0.6,3.3c-0.5,1.3-1,2.5-1.6,3.7
			c-1.2,2.7-2.6,6-4.3,9.9c-1.7,3.9-3.4,8.1-5.4,12.7c-1.9,4.6-3.9,9.3-5.9,14.3c-2,4.9-4,9.8-5.9,14.4c-1.9,4.7-3.7,9.1-5.4,13.3
			c-1.7,4.2-3.1,7.8-4.3,10.8c-0.6,1.5-1.1,3-1.6,4.6c-0.5,1.5-0.7,3.1-0.7,4.7c0,0.7,0.1,1.4,0.4,2c0.4,0.6,1,0.9,1.7,0.8
			c1.3-0.1,2.6-0.4,3.8-1.1c1.7-0.8,3.4-1.8,4.9-2.8c1.8-1.2,3.6-2.5,5.5-4s3.8-3.1,5.7-4.7c1.9-1.6,3.7-3.3,5.4-4.9
			c1.7-1.6,3.3-3.1,4.6-4.5c0.3-0.3,0.7-0.6,1.1-0.7c0.8-2.4,1.6-4.8,2.2-7.2c0.4-1,0.9-2.5,1.6-4.4s1.4-3.8,2.3-5.6
			c0.8-1.7,1.8-3.3,2.9-4.8c0.8-1.2,2.1-1.9,3.5-2c1.5-0.1,3,0.3,4.2,1.3c0.9,1.1,1.4,2.5,1.3,3.9c0,0.5-0.1,1.1-0.1,1.6
			c-0.1,0.7-0.2,1.5-0.4,2.4c-0.1,0.8-0.3,1.6-0.5,2.3c-0.1,0.6-0.3,1.1-0.5,1.6c1.8-1.9,3.7-3.9,5.8-5.8c2-1.9,4.2-3.6,6.4-5.2
			c2.1-1.5,4.4-2.8,6.8-3.8c2.2-0.9,4.6-1.4,6.9-1.5c1.6,0,3.2,0.2,4.7,0.7c1.5,0.4,2.9,1.1,4.2,2c1.2,0.9,2.3,2,3,3.3
			c0.8,1.4,1.2,3,1.2,4.7c-0.1,2.6-0.7,5.2-1.8,7.5c-1.3,2.8-2.7,5.5-4.5,8c-1.8,2.7-3.7,5.3-5.8,7.9c-2.1,2.5-4,4.9-5.8,6.9
			s-3.3,3.9-4.6,5.3c-0.8,0.8-1.5,1.8-1.9,3c0,0.6,0.2,1.2,0.7,1.7c0.6,0.5,1.4,0.7,2.2,0.6c1.3-0.2,2.5-0.6,3.6-1.4
			c2.3-1.4,4.6-3,6.7-4.8c2.9-2.3,6.5-5.3,10.9-9.1c3-2.6,6.6-5.7,10.6-9.3l19.1-177.4c-2.6,1.4-5.4,2.5-8.2,3.4
			C1737.6,335.6,1726.4,338,1712.2,339.9z"/>
		<path class="st4" d="M1667.5,299.7l13-52.8l74.5-78.6l0.1-0.1c1.6-1.8-1.6-7.3-6.9-12s-11-6.3-12.8-4.5l0,0l-79.5,83.6l-16.3,63.1
			c-10.9-0.4-22.3-0.5-34.1-0.5c-82.8,0-149.9,9.3-149.9,20.7c0,11.4,67.1,20.7,149.9,20.7s149.9-9.2,149.9-20.6
			C1755.3,310.2,1719.3,303,1667.5,299.7z M1647.5,329.4c-9.8,0-17.8-2.2-17.8-4.9c0-1.1,1.4-2.2,3.8-3l-0.2,0.9
			c-0.1,0.1-0.1,0.3-0.1,0.4c0,1.7,6.4,3.1,14.3,3.1s14.3-1.4,14.3-3.1l0.3-1.1c2,0.8,3.2,1.7,3.2,2.8
			C1665.3,327.3,1657.3,329.4,1647.5,329.4z"/>
	</g>
</g>
<g>
	<text transform="matrix(1 0 0 1 143.4113 483.6651)" class="st5 st6 st7">Task runner</text>
	<text transform="matrix(1 0 0 1 143.4117 329.2002)" class="st4 st6 st8">GULP</text>
</g>
</svg>
