<?xml version="1.0" encoding="utf-8"?>
<!-- Generator: Adobe Illustrator 24.0.2, SVG Export Plug-In . SVG Version: 6.00 Build 0)  -->
<svg version="1.1" id="Capa_1" xmlns="http://www.w3.org/2000/svg" xmlns:xlink="http://www.w3.org/1999/xlink" x="0px" y="0px"
	 viewBox="0 0 1920 1080" style="enable-background:new 0 0 1920 1080;" xml:space="preserve">
<style type="text/css">
	.st0{fill:#754141;}
	.st1{fill:#F6C358;}
	.st2{fill:#DBD8DD;}
	.st3{fill:#EEEFEE;}
	.st4{fill:#FCD462;}
	.st5{fill:#FFD56C;}
	.st6{fill:#FFFFFF;stroke:#754141;stroke-width:10;stroke-miterlimit:10;}
</style>
<rect class="st0" width="1920" height="1080"/>
<g>
	<g>
		<path class="st1" d="M1569.7,423h-241.1c-8,0-15.8-3.3-21.2-9.2l-31.1-33.1c-5.5-5.9-13.2-9.2-21.2-9.2h-101.2
			c-16.1,0-29.1,13.1-29.1,29.1v324.3c0,16.1,13,29.1,29.1,29.1l0,0h415.8c16.1,0,29.1-13.1,29.1-29.1l0,0V452
			C1598.8,436,1585.8,423,1569.7,423L1569.7,423z"/>
		<path class="st2" d="M1194.4,326h353.4v256.2h-353.4V326L1194.4,326z"/>
		<path class="st3" d="M1175.8,355.5h342.6v245.4h-342.6V355.5z"/>
		<path class="st2" d="M1214.6,392.3h265.1v14h-265.1V392.3z"/>
		<path class="st2" d="M1214.6,436.5h265.1v13.9h-265.1V436.5z"/>
		<path class="st4" d="M1592,469.6h-263.3c-8,0-15.7,3.3-21.2,9.2l-31.1,33c-5.5,5.9-13.1,9.2-21.1,9.2h-118.8
			c-16.1,0-29.1,13-29.1,29.1l0,0c0,0.9,0,1.8,0.1,2.6l15,174.9c1.3,14.9,13.9,26.5,29,26.5h420.8c15,0,27.6-11.4,29-26.5
			l19.7-226.1c1.4-16-10.3-30.1-26.3-31.6C1593.8,469.7,1592.9,469.7,1592,469.6L1592,469.6z"/>
	</g>
	<g>
		<path class="st1" d="M505.7,377.9v-17.1c0-10.3-8.4-18.8-18.8-18.8H317.7c-10.4,0-18.8,8.5-18.8,18.8v110.7h470v-62.2
			c0-10.4-8.5-18.8-18.8-18.8H518.4C511.3,390.4,505.7,384.8,505.7,377.9L505.7,377.9z"/>
		<path class="st5" d="M743.8,738H324.1c-13.9,0-25.1-11.2-25.1-25.1V467h207.5c5.3,0,10.3-2.2,13.9-6.1l23-25.3
			c3.5-3.9,8.6-6.1,13.9-6.1H769V713C768.9,726.9,757.7,738,743.8,738z"/>
	</g>
	<g>
		<path class="st6" d="M1198.6,391.5l-146.7-146.7c-3.6-3.6-7.9-5.5-12.9-5.5c-4.9,0-9.3,1.8-12.9,5.5c-3.6,3.6-5.5,7.9-5.5,12.9
			V331h-64.2c-136.2,0-219.8,38.5-250.7,115.5c-10.1,25.6-15.2,57.4-15.2,95.4c0,31.7,12.1,74.8,36.4,129.2c0.5,1.3,1.5,3.6,3,6.8
			c1.4,3.2,2.7,6.1,3.9,8.6s2.4,4.6,3.7,6.3c2.2,3.2,5,4.9,8,4.9c2.9,0,5.1-1,6.8-2.9c1.6-1.9,2.4-4.3,2.4-7.2
			c0-1.7-0.3-4.2-0.7-7.6s-0.7-5.6-0.7-6.8c-1-13-1.4-24.8-1.4-35.3c0-19.3,1.7-36.5,5-51.8s8-28.5,13.9-39.7s13.6-20.8,23-29
			c9.4-8.1,19.4-14.8,30.2-19.9s23.5-9.2,38.1-12.1s29.3-5,44.1-6.1c14.8-1.2,31.6-1.7,50.3-1.7h64.2V551c0,5,1.8,9.3,5.4,12.9
			c3.6,3.6,7.9,5.4,12.9,5.4s9.3-1.8,12.9-5.4l146.7-146.7c3.6-3.6,5.4-7.9,5.4-12.9C1204.1,399.5,1202.3,395.1,1198.6,391.5z"/>
	</g>
</g>
</svg>
